<svg xmlns="http://www.w3.org/2000/svg" xmlns:xlink="http://www.w3.org/1999/xlink" width="28pt" height="28pt" viewBox="0 0 28 28" version="1.1" class="">
   <path style="fill:none;stroke-width:10;stroke-linecap:round;stroke-linejoin:round;stroke:rgb(0%,0%,0%);stroke-opacity:1;stroke-miterlimit:4;" d="M 224 128 C 224 181.035714 181.035714 224 128 224 C 74.964286 224 32 181.035714 32 128 C 32 74.964286 74.964286 32 128 32 C 181.035714 32 224 74.964286 224 128 Z M 224 128 " transform="matrix(0.109375,0,0,0.109375,0,0)"></path>
   <path style="fill:none;stroke-width:10;stroke-linecap:round;stroke-linejoin:round;stroke:rgb(0%,0%,0%);stroke-opacity:1;stroke-miterlimit:4;" d="M 168 88 L 152 88 C 138.75 88 128 98.75 128 112 L 128 224 " transform="matrix(0.109375,0,0,0.109375,0,0)"></path>
   <path style="fill:none;stroke-width:10;stroke-linecap:round;stroke-linejoin:round;stroke:rgb(0%,0%,0%);stroke-opacity:1;stroke-miterlimit:4;" d="M 96 144 L 160 144 " transform="matrix(0.109375,0,0,0.109375,0,0)"></path>
</svg>
