<?xml version="1.0" standalone="no"?>
<!DOCTYPE svg PUBLIC "-//W3C//DTD SVG 20010904//EN"
 "http://www.w3.org/TR/2001/REC-SVG-20010904/DTD/svg10.dtd">
<svg version="1.0" xmlns="http://www.w3.org/2000/svg"
 width="3000.000000pt" height="3000.000000pt" viewBox="0 0 3000.000000 3000.000000"
 preserveAspectRatio="xMidYMid meet">

<g transform="translate(0.000000,3000.000000) scale(0.100000,-0.100000)"
fill="#000000" stroke="none">
<path d="M16359 25449 c-24 -29 -64 -73 -89 -98 -25 -26 -56 -63 -70 -84 -14
-20 -30 -37 -35 -37 -10 0 -85 -83 -85 -93 0 -2 -19 -25 -42 -49 -24 -25 -68
-74 -99 -109 -31 -35 -77 -87 -103 -115 -25 -28 -46 -56 -46 -62 0 -6 -9 -14
-20 -17 -11 -3 -20 -11 -20 -16 0 -5 -29 -40 -64 -78 -35 -38 -83 -96 -106
-128 -24 -32 -60 -71 -80 -88 -20 -16 -58 -57 -83 -90 -25 -33 -62 -76 -81
-94 -20 -19 -36 -41 -36 -48 0 -7 -6 -13 -12 -13 -7 0 -24 -17 -38 -37 -14
-20 -56 -70 -95 -113 -75 -82 -105 -118 -105 -125 0 -2 -38 -44 -85 -92 -47
-48 -91 -102 -97 -120 -6 -17 -19 -34 -27 -37 -9 -3 -21 -9 -28 -12 -6 -3 -58
38 -113 90 -56 52 -115 101 -131 108 -16 7 -29 16 -29 20 0 12 -132 136 -234
218 -17 14 -76 66 -131 115 -118 107 -148 133 -340 295 -16 14 -41 36 -55 50
-15 14 -44 38 -66 54 -50 38 -115 94 -264 229 -66 59 -123 107 -127 107 -5 0
-31 21 -60 48 -28 26 -77 67 -109 92 -32 25 -78 64 -103 87 -25 23 -76 68
-112 100 -36 32 -86 76 -111 98 -68 61 -107 79 -141 66 -38 -15 -43 -36 -19
-85 12 -23 29 -87 37 -142 9 -54 20 -113 25 -130 6 -17 10 -39 10 -50 0 -28
49 -255 58 -274 5 -8 9 -35 10 -60 2 -25 7 -58 12 -75 5 -16 11 -47 15 -69 3
-21 8 -43 11 -48 5 -8 22 -99 43 -238 5 -30 14 -75 21 -100 6 -25 16 -65 20
-90 10 -49 26 -129 41 -200 6 -25 12 -58 14 -75 5 -36 8 -50 35 -185 11 -58
25 -121 30 -141 6 -20 10 -49 10 -65 1 -16 11 -69 24 -119 13 -49 22 -93 20
-96 -2 -4 3 -24 12 -44 8 -21 13 -43 10 -51 -3 -7 0 -19 7 -26 7 -7 13 -29 14
-48 0 -19 3 -48 6 -63 l5 -28 -121 6 c-67 3 -185 8 -262 10 -403 12 -583 16
-815 20 -140 2 -338 6 -440 10 -274 8 -697 17 -848 17 -115 1 -135 -2 -153
-18 -36 -33 -3 -114 46 -114 13 0 50 -18 83 -40 33 -22 64 -40 69 -40 5 0 26
-16 46 -35 20 -19 42 -35 49 -35 6 0 21 -9 33 -20 20 -18 81 -56 135 -82 14
-6 43 -26 65 -43 80 -62 145 -105 159 -105 7 0 19 -7 26 -15 7 -8 31 -24 54
-35 22 -11 68 -40 101 -64 33 -24 86 -55 118 -68 31 -12 60 -30 63 -40 3 -9
18 -23 34 -30 17 -7 30 -16 30 -19 0 -6 29 -18 52 -23 4 0 16 -11 27 -23 11
-12 29 -24 41 -28 11 -3 20 -10 20 -15 0 -5 10 -12 23 -16 12 -4 35 -17 50
-30 16 -13 34 -24 40 -24 7 0 28 -13 47 -28 19 -16 46 -35 60 -42 14 -7 43
-28 65 -45 22 -18 50 -36 62 -39 35 -11 112 -56 120 -70 5 -8 22 -20 39 -29
17 -9 36 -23 43 -31 8 -9 40 -29 72 -46 52 -26 118 -67 184 -113 18 -13 18
-15 -10 -33 -28 -17 -114 -82 -125 -94 -3 -3 -30 -23 -60 -45 -30 -22 -64 -48
-75 -58 -11 -11 -36 -31 -55 -46 -19 -14 -46 -37 -60 -51 -14 -14 -49 -41 -77
-59 -29 -19 -53 -38 -53 -42 0 -5 -12 -15 -27 -23 -16 -8 -48 -33 -71 -55 -24
-23 -50 -41 -58 -41 -7 0 -21 -11 -30 -25 -9 -14 -21 -25 -28 -25 -6 0 -27
-17 -45 -37 -19 -21 -63 -58 -97 -83 -70 -50 -227 -176 -354 -283 -8 -7 -50
-41 -92 -76 -42 -35 -78 -66 -80 -70 -2 -4 -25 -22 -52 -40 -26 -19 -69 -54
-95 -78 -25 -25 -73 -65 -106 -91 -33 -25 -66 -54 -73 -64 -7 -10 -19 -18 -26
-18 -7 0 -26 -15 -43 -32 -16 -18 -42 -44 -57 -57 -32 -29 -32 -34 0 -60 31
-24 76 -27 93 -7 8 9 41 17 89 20 42 4 140 13 217 22 77 8 174 17 215 19 144
7 225 14 250 21 14 3 54 7 90 9 86 3 284 21 445 39 71 8 178 18 240 22 82 5
170 12 295 24 58 5 146 12 195 15 50 3 119 10 155 15 36 5 68 10 71 10 5 0
-26 -129 -92 -375 -12 -44 -25 -100 -29 -125 -5 -25 -18 -79 -31 -120 -12 -41
-24 -93 -26 -115 -3 -22 -9 -44 -13 -50 -4 -5 -11 -26 -15 -45 -4 -19 -13 -54
-20 -76 -8 -23 -19 -73 -26 -110 -6 -38 -15 -74 -20 -80 -5 -6 -11 -21 -13
-35 -3 -13 -5 -24 -6 -24 -1 0 -8 -29 -15 -65 -7 -36 -20 -92 -29 -125 -29
-109 -105 -421 -136 -560 -5 -22 -21 -87 -35 -145 -32 -133 -41 -206 -25 -225
6 -7 24 -16 39 -20 25 -5 37 2 93 58 36 35 87 81 114 102 27 22 63 54 81 71
18 18 78 71 133 119 55 48 116 102 134 121 18 19 36 34 39 34 3 0 17 10 29 23
81 77 190 176 218 197 18 14 58 50 89 80 32 30 102 96 156 145 54 50 129 120
167 158 37 37 71 67 75 67 13 1 123 107 123 119 0 6 5 11 11 11 9 0 53 38 155
135 17 17 54 49 82 72 l50 42 6 -27 c4 -15 16 -58 27 -97 11 -38 26 -92 34
-120 8 -27 25 -88 39 -135 15 -47 26 -91 26 -98 0 -16 47 -187 62 -224 6 -16
14 -28 19 -28 7 0 11 91 10 230 0 19 5 52 11 72 9 30 8 46 -5 80 -8 24 -19 59
-22 78 -4 19 -13 49 -20 65 -15 38 -111 330 -119 367 -4 17 -18 34 -35 43 -28
14 -31 14 -48 -8 -10 -12 -31 -30 -46 -40 -15 -10 -33 -29 -39 -43 -6 -13 -16
-24 -23 -24 -6 0 -44 -32 -85 -70 -41 -39 -121 -114 -178 -168 -122 -115 -154
-144 -216 -197 -25 -22 -46 -45 -46 -52 0 -7 -5 -13 -12 -13 -6 0 -35 -22 -62
-50 -28 -27 -93 -89 -145 -137 -221 -206 -374 -355 -508 -494 -25 -26 -62 -59
-84 -75 -21 -16 -39 -34 -39 -41 0 -6 -29 -34 -64 -61 l-63 -50 19 76 c10 43
23 91 28 108 6 17 10 38 10 48 0 10 6 39 14 65 32 101 66 231 66 250 0 11 6
40 14 63 8 24 17 54 19 68 2 14 7 32 10 40 3 8 15 56 27 105 11 50 27 113 35
140 13 44 23 89 41 175 3 14 14 54 24 90 10 36 24 92 30 125 7 33 15 67 18 75
4 13 37 146 45 190 2 8 7 25 11 36 3 12 13 55 20 95 8 41 26 119 41 174 34
128 35 178 5 229 l-23 38 -81 -7 c-45 -3 -110 -8 -146 -10 -36 -2 -81 -7 -100
-11 -19 -4 -51 -8 -70 -10 -19 -1 -89 -8 -155 -14 -66 -7 -140 -14 -165 -17
-25 -2 -61 -6 -80 -8 -19 -2 -87 -8 -150 -14 -63 -6 -131 -13 -150 -16 -32 -5
-132 -15 -170 -16 -8 0 -40 -5 -70 -10 -30 -5 -100 -11 -155 -15 -55 -3 -104
-9 -110 -12 -5 -3 -39 -7 -76 -8 -37 -1 -75 -5 -86 -8 -10 -3 -58 -8 -108 -11
-49 -3 -97 -8 -105 -10 -8 -2 -37 -6 -65 -9 -155 -18 -142 -18 -118 2 12 9 48
37 80 61 32 25 63 50 68 56 6 6 31 27 56 47 62 47 112 88 188 157 19 17 38 31
43 31 11 0 119 89 131 108 4 6 31 27 60 46 29 18 77 57 107 85 30 28 72 63 92
78 21 14 38 30 38 34 0 5 17 20 38 34 84 57 107 76 237 192 11 10 54 44 97 75
42 32 103 84 136 117 32 32 69 64 81 70 12 7 46 35 77 63 30 29 64 58 76 66
12 9 41 35 66 59 25 23 49 43 53 43 14 0 20 59 9 79 -11 22 -64 54 -73 45 -3
-3 -15 8 -28 25 -13 17 -29 31 -36 31 -7 0 -13 5 -13 10 0 6 -6 10 -13 10 -7
0 -28 13 -47 30 -19 16 -42 29 -50 30 -18 0 -125 66 -161 99 -29 27 -86 62
-144 90 -22 10 -49 28 -59 40 -11 11 -24 21 -31 21 -7 0 -20 9 -30 20 -10 11
-20 18 -23 15 -2 -2 -24 11 -47 30 -23 19 -47 35 -52 35 -6 0 -16 7 -24 16 -7
8 -35 27 -62 40 -27 14 -67 39 -90 55 -22 16 -45 29 -51 29 -6 0 -19 8 -27 18
-9 11 -43 34 -75 53 -32 18 -68 41 -78 51 -11 10 -24 18 -29 18 -12 0 -151 82
-155 92 -4 10 -89 53 -122 61 -14 3 -33 20 -44 37 -10 17 -20 29 -23 26 -3 -3
-27 10 -53 27 -57 39 -102 66 -149 91 -20 10 -48 29 -63 42 l-28 23 108 -4
c200 -8 1473 -17 2041 -15 158 1 186 -2 202 -16 18 -16 21 -15 53 7 34 23 34
23 29 87 -2 36 -9 76 -15 91 -7 14 -13 36 -14 49 -2 13 -10 56 -18 95 -8 40
-22 117 -32 172 -9 55 -21 108 -25 117 -5 9 -13 43 -18 75 -19 116 -41 229
-50 258 -5 17 -12 46 -15 65 -3 19 -12 67 -21 105 -8 39 -15 82 -15 97 0 15
-4 30 -10 33 -5 3 -10 23 -10 43 0 20 -9 71 -20 112 -11 41 -23 95 -26 120 -3
25 -11 61 -18 80 -7 19 -18 64 -25 100 -11 57 -21 104 -26 120 -1 3 -5 32 -9
65 -5 33 -12 65 -16 70 -4 6 -10 26 -13 45 -16 97 -61 304 -78 358 -6 19 -8
36 -5 39 3 3 27 -15 53 -40 63 -59 97 -90 157 -141 27 -22 54 -46 60 -51 6 -6
29 -24 51 -40 22 -17 51 -42 65 -56 14 -14 41 -36 60 -49 19 -14 54 -43 78
-67 37 -37 210 -189 281 -248 14 -11 35 -29 46 -40 12 -11 42 -36 66 -55 24
-19 62 -51 84 -71 22 -21 67 -58 100 -84 50 -38 161 -135 225 -195 8 -9 33
-29 55 -45 21 -17 48 -39 60 -50 11 -11 38 -33 60 -50 39 -30 80 -70 228 -221
94 -95 100 -101 157 -139 25 -16 46 -33 47 -38 4 -23 12 -27 56 -32 47 -4 49
-3 101 48 29 28 66 70 82 91 16 22 40 52 54 66 14 15 46 49 71 76 25 27 54 63
64 79 10 17 42 53 71 81 28 29 64 69 80 90 16 21 43 51 59 65 17 15 37 39 44
53 17 32 79 103 157 180 34 34 74 79 89 101 16 22 34 45 39 50 6 6 29 33 51
60 21 28 60 70 86 95 25 25 56 59 68 77 12 18 34 46 49 62 36 41 86 99 119
140 16 19 40 46 56 59 15 14 27 31 27 38 0 7 16 25 35 39 19 15 60 60 91 101
31 41 59 74 62 74 2 0 2 -28 -2 -63 -3 -35 -8 -104 -12 -153 -3 -49 -12 -154
-20 -234 -17 -162 -23 -235 -28 -330 -2 -36 -6 -81 -10 -100 -7 -34 -12 -92
-20 -220 -9 -125 -18 -235 -23 -255 -3 -11 -6 -66 -8 -123 -2 -57 -6 -124 -9
-150 -8 -65 -14 -154 -22 -312 -10 -224 -10 -294 1 -306 19 -20 72 -43 107
-48 18 -2 45 -9 61 -15 15 -6 27 -8 27 -6 0 2 12 0 28 -6 15 -6 50 -15 77 -20
28 -5 82 -15 120 -23 39 -8 121 -24 184 -36 63 -11 121 -25 131 -30 9 -5 41
-12 71 -16 30 -3 88 -14 129 -24 41 -10 102 -23 135 -30 33 -7 80 -18 105 -26
25 -7 72 -16 105 -19 33 -4 83 -13 110 -20 28 -7 72 -16 98 -19 27 -3 54 -9
60 -14 14 -11 73 -24 212 -47 55 -9 111 -21 125 -26 14 -4 54 -13 90 -19 36
-7 76 -16 90 -21 22 -8 184 -38 235 -43 32 -3 32 -19 0 -28 -48 -15 -188 -76
-225 -99 -40 -24 -156 -82 -202 -100 -28 -11 -70 -28 -92 -39 -23 -10 -45 -18
-49 -19 -4 0 -19 -9 -34 -21 -14 -11 -33 -20 -43 -20 -10 0 -29 -9 -43 -20
-14 -11 -29 -20 -33 -20 -13 0 -381 -179 -454 -220 -19 -11 -44 -20 -55 -20
-11 0 -36 -10 -55 -22 -19 -12 -70 -38 -112 -58 -42 -20 -83 -41 -90 -47 -7
-6 -30 -16 -50 -22 -20 -7 -42 -19 -48 -27 -7 -7 -23 -14 -35 -14 -12 0 -28
-7 -35 -15 -7 -8 -19 -15 -28 -15 -8 0 -36 -12 -61 -28 -25 -15 -73 -41 -106
-57 -68 -34 -185 -144 -185 -174 0 -11 11 -32 25 -47 14 -15 25 -30 25 -33 0
-3 17 -24 38 -46 22 -22 55 -62 75 -88 20 -26 44 -56 53 -65 9 -9 50 -58 91
-108 41 -51 78 -94 82 -96 4 -2 27 -30 51 -63 24 -33 70 -86 102 -118 32 -33
58 -64 58 -69 0 -6 16 -27 35 -47 20 -20 57 -63 83 -96 62 -79 107 -131 173
-200 10 -12 19 -24 19 -28 0 -10 63 -86 137 -166 28 -31 70 -80 92 -108 23
-29 45 -53 49 -53 4 0 13 -12 19 -27 7 -16 28 -44 46 -63 42 -45 85 -106 67
-95 -8 5 -21 10 -30 11 -8 1 -50 13 -92 28 -42 14 -85 26 -95 26 -10 0 -44 9
-77 20 -32 11 -62 17 -67 14 -5 -2 -19 2 -31 10 -24 15 -56 23 -121 30 -21 3
-44 9 -50 14 -7 6 -57 21 -112 35 -55 14 -170 44 -255 67 -85 23 -177 46 -205
52 -27 5 -80 19 -117 30 -37 11 -80 21 -96 23 -16 1 -33 4 -38 7 -17 11 -221
58 -248 58 -18 0 -25 -4 -20 -11 4 -7 8 -27 9 -46 1 -19 6 -38 11 -43 15 -15
125 -51 219 -72 50 -11 113 -29 140 -39 28 -11 69 -21 92 -23 23 -3 50 -9 60
-15 23 -12 240 -71 245 -66 2 2 2 -36 1 -83 -3 -161 -3 -183 1 -191 3 -4 8
-48 11 -97 4 -49 10 -100 15 -114 5 -14 16 -72 26 -130 9 -58 22 -120 30 -139
8 -18 14 -42 14 -53 0 -26 37 -145 60 -193 11 -22 22 -60 26 -85 4 -25 10 -49
13 -55 4 -5 18 -46 31 -90 14 -44 27 -82 30 -85 4 -3 17 -32 30 -65 34 -89 44
-109 57 -118 7 -4 13 -16 13 -25 0 -24 51 -155 67 -170 7 -7 13 -20 13 -27 0
-7 6 -20 13 -27 17 -18 107 -185 102 -190 -2 -2 7 -17 20 -32 14 -16 29 -44
34 -61 5 -18 29 -64 55 -103 25 -39 46 -76 46 -81 0 -6 5 -11 10 -11 6 0 10
-5 10 -11 0 -6 12 -24 27 -39 14 -16 36 -47 47 -69 28 -53 117 -184 133 -194
7 -4 13 -14 13 -22 0 -7 15 -28 33 -47 17 -19 45 -51 62 -73 16 -22 36 -47 45
-56 30 -32 50 -59 43 -59 -4 0 29 -37 73 -83 43 -45 89 -93 100 -107 41 -48
220 -216 293 -275 105 -85 248 -186 305 -215 27 -14 75 -38 105 -54 66 -34
229 -86 289 -93 23 -3 42 -7 42 -10 0 -2 -26 -57 -59 -121 -65 -129 -81 -172
-117 -312 -29 -111 -45 -159 -91 -275 -42 -103 -63 -161 -63 -171 0 -6 -9 -29
-20 -52 -11 -22 -20 -48 -20 -55 0 -8 -13 -48 -30 -88 -16 -41 -30 -83 -30
-94 0 -11 -6 -32 -14 -47 -8 -15 -17 -42 -21 -60 -4 -18 -11 -37 -15 -43 -4
-5 -11 -26 -15 -45 -9 -48 -37 -110 -48 -110 -35 0 -294 96 -378 141 -20 10
-43 19 -51 19 -8 0 -24 9 -36 20 -12 11 -26 20 -32 20 -6 0 -40 20 -74 45 -35
25 -67 45 -72 45 -10 0 -143 87 -188 122 -15 13 -48 34 -72 48 -46 27 -62 39
-135 104 -25 23 -63 55 -85 73 -21 17 -57 47 -79 67 -22 20 -44 36 -48 36 -11
0 -64 48 -141 129 -34 35 -69 71 -80 80 -42 36 -180 178 -205 211 -14 19 -43
50 -63 69 -21 19 -38 39 -38 44 0 4 -17 26 -37 48 -21 23 -47 52 -58 66 -11
14 -35 44 -52 65 -18 22 -41 53 -50 69 -10 16 -21 29 -25 29 -4 0 -8 7 -8 15
0 8 -4 15 -8 15 -4 0 -15 12 -24 28 -9 15 -25 37 -35 49 -37 45 -53 67 -53 75
0 8 -90 149 -101 158 -3 3 -23 39 -45 80 -21 41 -41 77 -44 80 -15 12 -99 189
-101 213 -1 14 -21 -69 -22 -95 -1 -10 -4 -18 -7 -18 -3 0 -5 -35 -5 -77 0
-76 8 -100 44 -145 8 -10 11 -18 7 -18 -4 0 3 -18 15 -40 13 -22 26 -40 31
-40 4 0 8 -6 8 -13 0 -8 9 -22 20 -32 11 -10 22 -27 26 -39 3 -11 22 -44 40
-73 19 -28 34 -56 34 -61 0 -6 23 -35 51 -66 27 -30 50 -58 49 -61 -1 -9 53
-78 72 -93 10 -7 18 -20 18 -28 0 -8 3 -14 8 -14 4 0 18 -17 32 -38 14 -20 44
-57 67 -82 23 -25 73 -81 110 -125 133 -156 477 -484 523 -500 17 -5 30 -12
30 -16 0 -23 233 -218 310 -259 15 -8 55 -34 88 -58 34 -23 68 -42 76 -42 8 0
16 -5 18 -11 5 -14 87 -61 218 -125 171 -83 255 -116 355 -137 39 -9 96 -21
128 -28 31 -7 57 -16 57 -21 0 -5 -9 -28 -21 -51 -11 -23 -24 -60 -29 -82 -5
-22 -15 -58 -24 -80 -8 -22 -15 -65 -16 -96 0 -46 4 -60 24 -80 50 -50 93 -86
126 -105 19 -10 37 -21 40 -24 18 -18 80 -60 89 -60 6 0 35 -17 64 -37 28 -20
82 -52 119 -70 38 -18 86 -44 109 -58 65 -42 109 -65 121 -65 6 0 43 -15 82
-34 95 -45 123 -56 147 -56 18 0 87 -26 129 -49 8 -4 42 -16 75 -26 33 -10 65
-22 70 -25 6 -4 26 -11 45 -15 31 -6 134 -48 182 -75 10 -6 26 -10 37 -10 11
0 21 -3 23 -8 3 -7 39 -23 138 -61 49 -19 84 -34 209 -93 46 -21 114 -49 150
-62 36 -13 87 -33 113 -45 26 -11 55 -21 66 -21 10 0 32 -6 48 -14 16 -7 43
-20 61 -27 39 -16 46 -45 28 -114 -8 -28 -16 -70 -19 -93 -3 -23 -8 -47 -11
-52 -6 -10 -34 -175 -41 -240 -5 -55 -34 -207 -55 -298 -11 -46 -17 -87 -14
-92 3 -5 1 -11 -4 -14 -5 -3 -9 -23 -9 -43 0 -21 -5 -49 -10 -63 -10 -26 -17
-75 -28 -190 -10 -105 -11 -115 -13 -115 -2 0 -4 -13 -6 -30 -2 -16 -8 -73
-14 -125 -7 -52 -13 -111 -16 -130 -2 -19 -4 -35 -5 -35 -2 0 -4 -16 -20 -150
-6 -49 -15 -117 -20 -150 -5 -33 -12 -96 -15 -140 -4 -43 -8 -82 -11 -86 -2
-4 -5 -32 -5 -61 -1 -29 -5 -71 -9 -93 -8 -37 -19 -128 -26 -220 -1 -22 -4
-40 -5 -40 -1 0 -3 -18 -5 -40 -14 -179 -35 -373 -49 -455 -3 -14 -7 -54 -9
-90 -3 -36 -10 -89 -16 -118 -7 -29 -10 -56 -7 -59 3 -3 1 -17 -5 -32 -6 -14
-12 -46 -14 -71 -5 -61 -42 -328 -48 -349 -6 -18 -15 -94 -21 -166 -3 -27 -10
-95 -16 -150 -6 -55 -12 -125 -14 -155 -2 -30 -8 -90 -14 -133 -5 -43 -12
-135 -16 -205 -3 -70 -7 -134 -10 -142 -5 -19 -13 -104 -25 -255 -12 -160 -20
-250 -26 -305 -2 -25 -7 -123 -9 -219 -2 -95 -7 -182 -10 -192 -4 -11 -8 -38
-10 -62 -2 -23 -9 -62 -15 -87 -7 -25 -13 -85 -15 -135 -2 -49 -6 -106 -9
-125 -3 -19 -8 -74 -10 -122 -3 -48 -7 -91 -9 -96 -11 -16 -19 -177 -23 -407
-1 -132 -5 -292 -8 -355 -3 -63 -8 -187 -11 -275 -6 -156 -9 -212 -20 -325 -3
-30 -7 -107 -10 -170 -2 -63 -8 -136 -13 -161 -5 -25 -7 -61 -6 -80 3 -34 4
-100 2 -149 -2 -48 23 -185 40 -219 9 -19 24 -38 32 -42 110 -56 114 -57 277
-64 87 -3 165 -8 173 -10 25 -7 189 -25 280 -31 47 -2 146 -11 220 -19 74 -8
180 -15 235 -14 104 0 188 -5 265 -15 25 -3 77 -8 115 -11 39 -3 81 -7 95 -10
96 -16 358 -40 425 -38 169 5 254 2 435 -12 30 -3 138 -7 240 -9 164 -5 224
-8 410 -21 25 -2 97 -6 160 -9 63 -4 133 -8 155 -11 50 -5 461 -28 495 -27 97
3 155 1 220 -8 41 -5 102 -10 135 -11 33 -1 123 -7 200 -15 77 -7 167 -13 200
-13 33 -1 101 -3 150 -7 154 -10 556 -8 620 4 66 12 139 16 170 8 11 -2 20 -5
20 -5 0 -1 56 -4 125 -7 69 -2 170 -7 225 -9 55 -2 127 -7 160 -11 33 -4 85
-6 115 -5 253 8 506 13 610 11 69 0 154 4 190 9 36 6 110 13 166 15 140 7 149
10 165 58 12 36 11 42 -4 53 -13 9 -17 25 -16 61 6 155 -3 355 -27 619 -10
105 -19 217 -20 250 -2 33 -9 103 -17 155 -8 52 -12 99 -8 103 4 4 4 33 0 65
-7 57 -19 221 -20 277 -1 17 -5 55 -10 85 -10 65 -17 131 -25 260 -3 52 -9
110 -14 129 -5 18 -7 46 -4 61 4 15 0 77 -6 136 -14 118 -18 176 -24 329 -3
55 -7 118 -10 140 -3 22 -8 69 -11 105 -3 36 -10 90 -16 120 -5 30 -12 127
-15 215 -3 88 -9 166 -13 175 -4 8 -7 44 -6 79 1 35 -1 82 -6 105 -8 45 -19
178 -25 296 -2 41 -6 95 -9 120 -2 25 -7 72 -9 105 -3 33 -8 89 -11 125 -3 36
-7 101 -9 145 -2 44 -9 118 -14 165 -5 47 -10 99 -10 115 0 17 -2 55 -6 85 -3
30 -8 89 -11 130 -5 95 -16 209 -22 235 -8 37 -15 128 -14 190 1 46 -3 98 -13
175 -4 30 -9 84 -12 120 -3 36 -7 94 -10 130 -2 36 -7 101 -9 145 -3 44 -8 89
-11 100 -5 21 -24 234 -28 325 -1 30 -5 62 -8 70 -4 8 -9 58 -12 110 -13 207
-16 241 -22 252 -4 6 -8 43 -10 82 -2 39 -8 112 -13 161 -5 50 -12 113 -15
140 -2 28 -7 61 -10 74 -3 13 -8 56 -11 94 -3 39 -7 79 -11 89 -6 21 -21 20
216 24 676 11 689 12 690 46 7 180 7 238 0 263 -5 17 -11 59 -14 95 -20 233
-88 633 -145 850 -66 250 -100 357 -162 515 -7 17 -13 32 -13 35 -5 22 -101
238 -112 250 -7 8 -12 17 -12 20 5 24 -161 343 -218 421 -19 26 -34 50 -34 54
0 13 -125 208 -137 212 -7 3 -13 11 -13 18 0 7 -22 40 -48 72 -27 32 -62 78
-79 103 -17 25 -40 54 -52 65 -12 10 -43 49 -68 85 -26 36 -69 88 -97 115 -51
50 -64 80 -92 215 -10 49 -75 185 -130 274 -24 39 -44 76 -44 82 0 36 -239
296 -323 352 -21 14 -55 41 -75 59 -20 19 -53 42 -72 51 -19 9 -37 19 -40 24
-3 4 -26 17 -50 28 -25 11 -52 24 -60 29 -8 5 -26 14 -40 20 -14 6 -43 22 -65
36 -22 13 -53 31 -70 40 -16 8 -37 20 -45 25 -40 26 -249 140 -257 140 -5 0
-22 14 -39 31 -16 17 -42 38 -59 45 -44 21 -65 35 -110 75 -52 48 -137 115
-152 120 -12 4 -194 161 -220 189 -7 8 -54 58 -103 110 -50 52 -90 99 -90 104
0 8 -47 70 -87 116 -36 41 -85 105 -95 124 -6 12 -14 23 -17 26 -7 6 -28 41
-56 97 -12 23 -27 48 -33 55 -6 7 -14 26 -17 41 -4 16 -14 31 -21 34 -8 3 -14
11 -14 19 0 12 -48 129 -90 219 -25 54 -34 78 -31 92 1 6 -3 14 -9 18 -5 3
-10 18 -10 33 0 15 -8 44 -18 64 -11 20 -16 42 -12 50 8 14 24 89 22 100 -1 3
6 44 14 90 9 45 18 114 20 152 4 61 1 77 -24 130 -16 34 -42 75 -58 91 -39 40
-123 98 -154 107 -130 36 -235 47 -282 29 -13 -5 -43 -15 -68 -22 -25 -7 -50
-17 -57 -22 -18 -13 -30 -9 -228 83 -55 26 -121 50 -175 65 -63 17 -121 38
-125 46 -4 5 -14 9 -23 9 -9 0 -30 7 -45 15 -15 8 -60 17 -100 20 -40 4 -81 9
-92 12 -54 16 -133 9 -220 -19 -49 -17 -97 -36 -106 -44 -8 -8 -21 -14 -27
-14 -16 0 -132 -120 -132 -136 0 -8 -4 -14 -10 -14 -26 0 -74 -140 -89 -257
-9 -71 3 -141 30 -167 5 -6 9 -18 9 -28 0 -38 88 -138 138 -159 35 -14 23 -30
-50 -69 -36 -19 -83 -47 -105 -62 -21 -16 -44 -28 -49 -28 -13 0 -175 -159
-221 -215 -17 -22 -48 -60 -67 -83 -20 -24 -36 -48 -36 -52 0 -5 -7 -15 -15
-23 -17 -17 -47 -67 -71 -117 -24 -50 -24 -138 1 -172 20 -27 111 -78 139 -78
19 0 21 -42 5 -109 -25 -111 -34 -557 -12 -603 7 -15 16 -49 19 -75 3 -27 14
-60 24 -74 10 -14 24 -46 31 -70 7 -24 18 -51 25 -59 7 -8 25 -38 41 -67 34
-62 113 -148 163 -178 10 -5 44 -28 76 -50 59 -40 69 -45 111 -60 18 -6 21
-13 17 -39 -3 -17 -10 -42 -14 -56 -5 -14 -12 -45 -15 -68 -5 -32 -10 -41 -18
-33 -6 6 -19 11 -28 11 -9 0 -36 11 -60 24 -24 14 -61 28 -82 31 -20 4 -40 11
-43 16 -3 5 -17 9 -32 9 -47 0 -320 81 -472 140 -30 12 -84 33 -119 46 -35 13
-96 39 -135 58 -39 19 -105 46 -146 60 -41 14 -93 35 -115 46 -21 11 -45 20
-52 20 -7 0 -32 8 -56 19 -69 30 -199 78 -247 91 -25 7 -58 19 -73 26 -15 8
-67 26 -115 40 -48 13 -105 33 -127 43 -22 10 -71 31 -110 46 -118 46 -222 93
-365 166 -110 56 -136 64 -215 64 -60 0 -90 -5 -119 -20 -51 -26 -139 -118
-171 -180 -32 -60 -53 -77 -78 -64 -9 6 -22 7 -27 4 -9 -6 -15 -3 -77 29 -17
9 -36 16 -43 16 -6 0 -44 16 -84 35 -40 19 -80 35 -88 35 -8 0 -23 10 -34 21
-10 12 -33 28 -49 35 -17 7 -59 35 -94 63 -35 28 -67 51 -71 51 -5 0 -34 27
-66 60 -32 33 -61 60 -66 60 -5 0 -26 17 -46 38 -21 20 -58 55 -82 78 -25 23
-74 72 -108 110 -35 38 -88 94 -117 125 -30 30 -61 72 -71 92 -10 20 -21 37
-25 37 -10 0 -99 116 -99 128 0 6 -4 12 -8 14 -8 3 -113 146 -137 186 -5 10
-20 31 -32 49 -13 17 -23 34 -23 38 0 3 -13 23 -30 43 -28 36 -46 68 -141 250
-23 45 -46 82 -51 82 -4 0 -8 5 -8 11 0 12 -78 172 -111 227 -10 18 -34 72
-53 120 -19 48 -50 121 -70 162 -20 41 -36 84 -36 95 0 11 -8 34 -18 50 -19
32 -29 60 -38 110 -9 49 -53 178 -70 202 -8 13 -17 49 -20 81 -3 31 -12 64
-19 72 -7 8 -10 20 -8 27 2 6 -1 31 -8 55 -18 62 -18 64 -29 157 -6 46 -13 88
-16 92 -5 8 -8 63 -18 262 -2 42 -1 79 3 81 4 3 33 -5 66 -16 33 -11 98 -29
145 -39 47 -10 144 -35 215 -54 72 -20 153 -41 180 -46 28 -5 59 -14 70 -19
11 -6 43 -14 70 -19 28 -5 61 -14 75 -19 33 -12 82 2 98 29 11 17 11 24 -2 44
-9 14 -16 32 -16 41 0 10 -12 37 -26 62 -26 43 -41 63 -111 141 -74 84 -161
188 -183 221 -30 43 -96 110 -110 110 -6 0 -10 5 -10 11 0 14 -103 152 -142
192 -16 15 -28 31 -28 36 0 4 -10 16 -21 27 -12 10 -32 36 -45 56 -13 21 -44
59 -69 84 -24 26 -55 63 -69 84 -14 21 -45 59 -70 86 -25 27 -46 51 -46 54 0
3 -14 21 -30 39 l-31 33 2 272 c1 149 4 284 7 300 4 20 14 32 39 42 87 37 169
77 191 95 14 10 34 19 46 20 11 0 35 9 51 20 17 10 37 22 45 25 25 10 94 44
110 53 8 5 26 14 40 20 14 6 32 15 40 20 16 9 130 63 190 90 19 9 43 22 53 30
9 8 17 11 17 6 0 -4 11 0 25 9 13 9 30 16 36 16 7 0 20 6 28 13 9 8 36 22 61
31 39 16 178 82 220 105 8 5 42 21 75 37 33 15 67 33 75 40 8 6 47 24 85 39
39 16 124 56 190 90 131 68 167 104 145 144 -14 27 -54 47 -105 54 -22 3 -76
15 -120 27 -44 13 -87 23 -95 24 -9 1 -20 4 -25 7 -6 3 -26 6 -45 8 -19 2 -40
7 -45 11 -6 5 -55 18 -110 30 -55 12 -140 30 -190 41 -49 11 -106 22 -125 25
-19 4 -69 17 -110 30 -41 13 -84 24 -96 24 -12 0 -57 9 -100 20 -44 12 -101
25 -129 30 -27 5 -77 14 -110 20 -32 6 -64 15 -70 19 -5 5 -38 11 -72 14 -34
4 -71 10 -81 16 -18 10 -60 19 -94 20 -14 1 -18 10 -18 37 0 19 5 45 12 57 17
33 120 147 132 147 13 0 62 59 95 113 12 20 26 37 29 37 9 0 32 73 32 99 0 11
5 23 10 26 23 14 1 183 -25 198 -8 4 -15 14 -15 21 0 30 -36 46 -101 46 -53 0
-77 -6 -124 -30 -32 -16 -66 -37 -75 -45 -37 -33 -42 -20 -35 87 4 56 6 116 5
135 -3 58 -3 76 2 173 4 86 2 101 -21 156 -36 84 -77 117 -155 125 -46 4 -71
1 -101 -12 -54 -23 -95 -31 -95 -20 0 19 -46 80 -68 90 -13 6 -37 11 -55 11
-55 0 -57 6 -52 120 3 58 8 116 11 130 3 14 7 52 9 85 2 33 6 89 10 125 18
188 37 455 39 555 l1 80 -46 3 c-45 3 -48 1 -90 -49z m115 -1202 c12 -17 15
-53 15 -147 -2 -389 5 -471 42 -490 20 -11 70 8 85 31 10 17 24 147 28 272 3
77 9 114 19 125 8 9 18 36 22 58 9 58 36 84 86 84 32 0 41 -4 48 -22 7 -21 5
-419 -2 -477 -7 -47 21 -123 55 -152 49 -41 102 -45 170 -14 31 14 61 32 68
40 17 21 71 30 81 14 10 -16 2 -89 -12 -103 -5 -6 -9 -19 -9 -29 0 -25 -46
-84 -137 -175 -50 -51 -76 -86 -85 -114 -7 -23 -24 -49 -40 -61 -19 -14 -28
-30 -28 -49 0 -40 -22 -45 -99 -24 -36 10 -106 26 -156 36 -49 11 -106 24
-125 29 -19 6 -47 11 -61 11 -14 0 -56 9 -92 21 -58 18 -65 23 -57 38 5 10 12
49 15 87 3 38 8 76 10 84 6 22 26 186 30 256 2 34 9 89 14 122 5 33 8 78 6 99
-2 21 1 65 6 98 6 33 13 83 14 110 6 91 15 190 21 228 5 31 10 37 30 37 13 0
30 -10 38 -23z m371 -2750 c-1 -13 -4 -27 -7 -33 -3 -5 -4 -22 -2 -39 2 -16
-1 -44 -5 -62 -6 -19 -5 -50 0 -74 6 -23 6 -46 2 -50 -10 -10 -68 43 -87 80
-8 15 -33 46 -55 69 -23 23 -41 46 -41 52 0 5 12 13 28 16 15 4 33 11 40 17
30 24 79 46 102 46 21 1 25 -4 25 -22z m6954 -2857 c69 -27 134 -78 160 -125
25 -48 24 -88 -8 -278 -19 -114 -26 -141 -57 -232 -8 -23 -14 -49 -14 -59 0
-11 -7 -42 -15 -70 -8 -28 -24 -89 -35 -136 -22 -91 -32 -109 -52 -93 -7 6
-25 11 -41 11 -15 0 -47 5 -71 12 -44 12 -44 12 -40 53 4 61 21 143 33 165 5
10 11 43 12 73 1 30 5 59 9 64 12 16 23 68 21 93 -2 13 3 30 10 38 6 8 13 32
15 52 1 21 7 57 13 79 6 22 14 76 17 119 3 43 7 92 8 107 3 27 -17 117 -29
137 -9 15 9 12 64 -10z m-623 -522 c34 -10 50 -20 61 -42 11 -21 12 -31 4 -34
-6 -2 -11 -8 -11 -14 0 -6 -10 -21 -22 -33 -54 -54 -78 -82 -78 -92 0 -5 -11
-20 -25 -33 -34 -32 -102 -150 -116 -202 -6 -23 -8 -59 -5 -81 6 -36 3 -41
-46 -91 -59 -59 -112 -118 -113 -126 0 -3 -7 -16 -15 -30 -37 -65 -88 -179
-83 -184 3 -3 0 -13 -8 -22 -8 -10 -13 -19 -12 -20 1 -2 1 -9 -2 -16 -8 -27
-11 -179 -3 -184 18 -11 6 -66 -32 -147 -22 -47 -45 -105 -50 -129 -21 -80
-28 -113 -40 -173 -6 -33 -18 -81 -26 -107 -9 -26 -13 -52 -10 -57 4 -5 -5
-63 -19 -128 -13 -65 -27 -135 -30 -155 l-6 -38 -77 0 c-101 1 -134 14 -237
95 -87 67 -124 114 -177 220 -77 152 -101 257 -98 415 1 69 2 144 1 168 -1 41
11 54 35 34 5 -5 38 -13 74 -19 113 -17 193 -6 235 33 14 13 32 24 40 24 18 0
45 39 45 64 0 48 -65 59 -136 21 -40 -21 -59 -25 -133 -24 -129 1 -136 5 -135
65 3 97 19 192 44 249 5 11 19 49 31 85 12 36 32 88 44 115 12 28 31 73 41
100 10 28 20 52 23 55 4 3 17 25 30 50 13 25 34 56 46 70 33 37 125 192 125
210 0 25 84 64 122 55 76 -15 202 -16 241 0 22 9 47 13 58 10 10 -3 28 -1 39
5 12 6 38 13 58 16 20 2 75 11 122 18 112 18 170 19 226 4z m-1123 -305 c-4
-10 -24 -43 -45 -74 -42 -64 -88 -159 -88 -183 0 -9 -4 -16 -9 -16 -5 0 -22
-40 -38 -90 -15 -49 -32 -90 -38 -90 -35 0 -85 23 -91 42 -7 25 12 90 35 115
9 10 28 36 43 58 14 22 44 58 65 80 21 22 49 55 61 73 13 17 29 32 36 32 8 0
26 16 40 35 30 38 39 44 29 18z m1535 -264 c42 -11 90 -22 106 -24 55 -7 141
-49 184 -90 24 -22 51 -44 60 -48 35 -17 125 -160 158 -250 20 -57 24 -82 19
-117 -4 -25 -9 -62 -12 -83 -12 -90 -150 -310 -223 -355 -14 -9 -38 -28 -55
-43 -40 -37 -171 -103 -209 -106 -17 -1 -56 -7 -85 -12 -87 -16 -253 17 -361
72 -67 34 -161 100 -196 138 -39 43 -94 126 -94 143 0 6 -5 17 -10 22 -15 15
-40 141 -40 203 0 66 16 126 45 166 12 17 34 56 49 88 19 38 49 75 90 111 75
67 112 96 121 96 3 0 25 13 48 29 46 31 105 59 152 71 59 15 174 10 253 -11z
m-3858 -1048 c9 -12 363 -181 379 -181 5 0 67 -22 138 -49 70 -27 157 -59 193
-70 183 -57 199 -64 235 -116 22 -30 35 -60 35 -80 0 -17 7 -40 15 -51 8 -10
15 -31 15 -46 0 -15 4 -29 9 -32 15 -10 -8 -85 -39 -131 -17 -24 -30 -47 -30
-52 -1 -16 -80 -74 -122 -89 -61 -22 -193 -19 -287 6 -95 26 -179 59 -189 74
-7 11 -21 22 -92 70 -19 13 -55 43 -80 66 -62 58 -133 88 -211 91 -104 3 -131
-7 -193 -67 -31 -30 -56 -60 -56 -65 0 -6 -6 -25 -14 -42 -8 -18 -21 -63 -29
-102 -19 -87 -14 -320 8 -378 8 -20 15 -45 15 -55 0 -9 12 -39 25 -67 14 -27
25 -57 25 -66 0 -9 8 -27 18 -40 9 -13 26 -41 36 -61 10 -21 32 -50 47 -65 16
-16 29 -32 29 -38 0 -5 11 -21 24 -35 89 -92 162 -165 235 -233 46 -42 82 -80
78 -83 -3 -3 4 -31 14 -62 24 -67 19 -118 -17 -200 -13 -30 -24 -60 -24 -66 0
-7 -15 -26 -33 -42 -18 -16 -39 -38 -47 -49 -33 -45 -158 -109 -235 -121 -35
-5 -58 -1 -103 16 -149 60 -368 170 -462 233 -30 21 -58 37 -63 37 -4 0 -55
32 -113 71 l-105 72 5 36 c3 20 21 81 41 136 19 55 40 120 46 144 5 25 23 73
39 109 17 35 30 68 30 73 0 6 17 63 39 127 21 64 58 178 81 252 24 74 51 149
60 165 10 17 21 46 25 65 4 19 13 46 20 60 16 32 65 183 65 201 0 13 41 153
60 204 6 17 37 81 114 233 10 20 24 44 31 52 7 8 16 26 20 40 4 14 22 43 40
65 18 22 35 49 39 60 13 39 47 68 106 89 18 6 103 -3 110 -13z m1147 -452 c21
-11 48 -19 60 -19 13 0 34 -6 46 -14 12 -7 47 -21 77 -31 30 -9 72 -25 92 -36
20 -10 42 -19 49 -19 6 0 40 -14 75 -31 36 -16 73 -31 84 -32 20 -1 29 -17 10
-17 -17 0 -127 -114 -135 -140 -4 -14 -14 -32 -21 -41 -41 -46 -93 -160 -105
-229 -6 -30 -16 -71 -23 -90 -7 -19 -14 -57 -15 -84 -1 -26 -3 -52 -6 -56 -9
-14 35 -273 48 -289 20 -23 47 -81 47 -101 0 -25 39 -101 74 -142 17 -20 67
-80 111 -134 44 -53 93 -105 109 -115 17 -10 53 -36 80 -59 127 -101 168 -131
194 -143 15 -6 41 -21 57 -33 17 -12 51 -31 78 -42 26 -12 47 -26 47 -31 0 -6
5 -11 11 -11 6 0 48 -22 94 -50 46 -27 88 -50 94 -50 6 0 19 -7 29 -16 9 -8
44 -36 77 -62 53 -41 90 -75 132 -124 6 -7 34 -35 61 -61 28 -26 59 -67 71
-91 11 -24 31 -61 45 -81 15 -21 26 -44 26 -52 0 -7 16 -37 35 -66 22 -32 35
-64 35 -84 0 -17 4 -34 9 -37 5 -3 12 -23 16 -43 3 -21 12 -47 19 -58 19 -30
25 -73 31 -245 3 -85 8 -170 11 -188 6 -40 15 -235 16 -347 0 -44 7 -100 15
-124 8 -24 12 -58 9 -75 -3 -17 -8 -146 -11 -286 -6 -264 3 -383 39 -505 8
-27 16 -68 17 -90 1 -22 6 -44 9 -50 4 -5 11 -32 14 -60 12 -85 83 -266 116
-297 11 -11 20 -28 20 -40 0 -31 85 -153 160 -229 68 -70 116 -103 190 -133
25 -11 71 -31 102 -47 32 -15 75 -31 95 -34 21 -4 54 -12 73 -20 145 -53 585
-34 755 33 82 33 204 110 223 141 7 12 20 21 31 21 16 0 48 29 140 127 17 17
38 36 48 42 11 5 25 22 33 38 8 15 21 33 27 38 7 6 14 19 16 30 1 12 13 35 25
52 12 17 22 38 22 46 0 8 6 17 13 20 12 5 42 84 36 97 -1 3 4 16 12 30 7 14
15 32 16 40 12 65 24 156 29 210 3 36 7 71 10 78 11 35 15 399 5 517 -15 173
-21 218 -31 230 -4 5 -10 33 -13 60 -3 28 -13 104 -22 170 -8 66 -18 156 -21
200 -3 44 -9 108 -13 143 -5 42 -4 62 3 63 6 1 20 3 31 5 11 2 50 8 86 13 37
4 71 11 77 15 6 4 39 11 74 16 70 10 135 24 188 38 19 6 61 18 94 26 32 9 63
19 67 22 11 6 10 19 14 -196 3 -161 8 -303 20 -660 9 -251 16 -500 28 -1005
l2 -79 -37 -7 c-21 -3 -46 -13 -56 -22 -10 -10 -27 -17 -38 -17 -11 0 -33 -11
-49 -25 -17 -13 -56 -45 -87 -70 -31 -25 -60 -54 -63 -65 -4 -11 -20 -27 -36
-35 -16 -9 -29 -20 -29 -26 0 -6 -14 -30 -31 -53 -17 -24 -31 -50 -33 -59 -1
-9 -14 -35 -29 -58 -15 -22 -30 -53 -34 -67 -3 -14 -16 -41 -29 -59 -13 -20
-25 -57 -29 -91 -4 -31 -13 -71 -20 -88 -45 -99 -39 -470 9 -559 9 -16 16 -37
16 -45 0 -8 9 -42 19 -75 11 -33 26 -82 35 -110 24 -82 52 -151 77 -193 55
-91 174 -242 191 -242 6 0 30 -17 53 -37 56 -51 75 -66 105 -81 14 -7 39 -20
55 -30 17 -9 50 -19 74 -22 l45 -5 2 -50 c4 -53 11 -280 19 -565 6 -221 12
-376 20 -510 3 -58 8 -217 10 -355 2 -137 6 -275 9 -305 5 -51 9 -131 21 -470
12 -328 16 -433 21 -560 3 -74 7 -187 9 -250 2 -63 6 -167 9 -230 4 -63 9
-162 11 -220 3 -58 7 -148 10 -200 3 -52 8 -162 12 -245 3 -82 9 -155 14 -161
5 -6 7 -48 4 -93 -2 -46 1 -95 6 -109 l10 -25 -78 6 c-43 3 -98 2 -123 -4 -65
-13 -116 -18 -285 -25 -159 -7 -376 3 -770 36 -221 19 -294 23 -610 35 -147 6
-246 12 -325 20 -36 4 -92 9 -125 11 -33 2 -132 8 -220 14 -88 5 -232 12 -320
15 -278 9 -396 15 -489 26 -50 5 -160 10 -244 9 -154 0 -345 13 -437 30 -43 8
-178 23 -320 35 -22 2 -107 6 -190 9 -82 2 -202 10 -265 16 -119 12 -160 15
-320 26 -52 3 -105 10 -118 15 -13 5 -46 9 -74 9 -28 0 -49 2 -46 5 2 3 63 6
134 8 117 3 135 6 189 32 94 43 205 166 240 264 11 31 25 65 31 76 28 49 49
230 34 289 -5 17 -11 55 -14 84 -4 30 -11 63 -17 74 -6 11 -8 22 -6 25 3 2 -1
20 -9 38 -8 19 -14 47 -14 63 0 15 -4 32 -9 38 -5 5 -16 32 -24 59 -9 28 -27
82 -41 120 -77 210 -88 349 -37 476 16 41 33 90 36 109 6 35 27 59 109 125 21
17 49 40 64 52 15 13 32 23 39 23 6 0 27 9 45 19 61 36 357 60 417 35 20 -8
60 -19 91 -24 83 -14 230 -55 270 -75 61 -32 69 -35 88 -35 10 0 42 -13 72
-29 111 -60 218 -111 231 -111 8 0 30 -10 49 -22 57 -35 129 -68 149 -68 10 0
30 -9 44 -20 14 -11 37 -20 51 -20 26 0 101 -35 112 -51 3 -5 12 -9 21 -9 8 0
37 -11 65 -25 27 -14 63 -25 78 -25 16 0 32 -4 35 -10 3 -5 15 -10 27 -10 19
0 52 -12 123 -46 17 -7 52 -18 79 -24 27 -6 57 -15 67 -21 11 -5 34 -11 52
-13 17 -2 57 -9 87 -16 67 -15 267 -15 370 0 41 6 86 13 100 14 118 15 406
120 440 162 7 7 32 23 56 35 23 12 60 39 80 60 21 22 43 39 50 39 7 0 26 16
43 35 17 19 33 35 36 35 3 0 29 25 58 56 29 31 62 66 75 77 12 11 22 24 22 27
0 4 24 33 54 64 29 31 59 75 66 96 7 22 21 42 32 45 10 4 18 11 18 16 0 5 16
32 35 59 43 61 93 152 110 200 7 19 27 66 45 103 17 38 33 78 35 89 3 12 9 24
14 27 13 9 58 167 66 236 10 79 10 271 0 315 -4 19 -7 48 -6 64 0 16 -6 41
-14 55 -8 14 -23 58 -34 96 -10 39 -30 95 -45 125 -31 64 -119 172 -169 205
-19 13 -37 31 -40 39 -11 28 -202 136 -277 156 -25 7 -52 15 -60 18 -22 9 -51
11 -215 18 -130 5 -164 3 -254 -15 -57 -11 -116 -21 -132 -21 -15 0 -38 -4
-51 -9 -13 -5 -48 -14 -78 -21 -30 -7 -71 -21 -90 -31 -20 -9 -54 -21 -75 -25
-22 -4 -56 -15 -75 -25 -19 -9 -58 -29 -86 -43 -29 -14 -61 -26 -72 -26 -12 0
-24 -4 -27 -10 -3 -5 -14 -10 -24 -10 -10 0 -26 -10 -37 -21 -10 -12 -46 -34
-79 -49 -33 -15 -90 -50 -127 -78 -37 -29 -75 -52 -84 -52 -9 0 -28 -8 -42
-17 -70 -46 -142 -86 -142 -78 0 3 -21 -8 -47 -24 -27 -16 -59 -32 -73 -36
-14 -4 -34 -14 -45 -21 -11 -8 -26 -14 -35 -14 -8 0 -49 -13 -90 -29 -124 -48
-345 -57 -403 -16 -12 8 -27 15 -34 15 -24 0 -172 95 -187 120 -8 14 -30 42
-50 63 -19 21 -38 48 -42 60 -4 12 -14 33 -24 47 -9 14 -23 43 -31 65 -7 22
-19 47 -26 56 -7 8 -13 23 -13 32 0 9 -4 19 -10 22 -5 3 -9 16 -9 28 1 12 -2
49 -5 82 -5 49 -17 233 -18 270 -1 13 29 204 41 268 5 27 7 57 4 67 -3 10 3
32 11 49 9 17 14 31 11 31 -3 0 4 24 16 53 11 28 23 65 25 81 2 16 11 42 19
59 14 29 52 156 61 204 8 42 33 133 39 144 6 9 9 21 18 84 1 11 7 27 12 35 17
26 35 84 40 125 9 77 17 110 28 124 6 7 15 38 19 70 4 31 9 65 11 76 1 11 6
25 9 31 28 44 31 394 4 489 -21 71 -80 199 -104 223 -9 10 -35 41 -57 70 -21
28 -43 52 -48 52 -4 0 -20 14 -34 30 -13 17 -30 30 -37 30 -7 0 -23 9 -36 20
-13 11 -28 20 -33 20 -6 0 -18 6 -26 14 -15 13 -87 44 -236 101 -102 39 -143
57 -200 86 -27 15 -97 50 -155 80 -98 49 -150 88 -260 194 -76 72 -92 152 -60
295 5 25 21 113 35 195 13 83 29 173 34 200 14 79 35 238 46 350 1 16 12 75
23 130 11 55 23 125 27 155 20 186 24 251 26 354 0 63 4 141 8 174 16 137 -42
176 -79 52 -22 -76 -30 -121 -39 -235 -5 -60 -12 -122 -16 -137 l-7 -27 -51
24 c-65 29 -132 56 -222 90 -77 29 -152 62 -175 76 -23 13 -111 54 -150 69
-19 7 -57 23 -85 35 -27 13 -61 26 -75 30 -14 4 -73 29 -132 56 -59 27 -116
49 -126 49 -10 0 -22 4 -27 8 -6 5 -36 17 -67 27 -54 18 -68 35 -28 35 27 0
79 31 111 65 15 17 48 52 74 80 25 27 48 59 51 71 3 12 17 43 30 70 13 26 24
57 24 68 0 12 7 42 14 68 15 47 13 112 -3 132 -5 6 -11 31 -15 55 -9 67 -35
103 -171 240 -5 6 -30 30 -55 55 -52 53 -100 106 -100 111 0 2 -18 23 -40 47
-22 24 -40 47 -40 53 0 5 -15 35 -34 65 -19 31 -37 67 -39 81 -2 13 -11 41
-21 61 -9 21 -16 48 -16 61 0 13 -4 27 -9 33 -11 11 -18 260 -8 270 4 4 7 16
7 26 0 24 35 93 60 118 25 25 81 35 122 21 18 -6 50 -27 71 -46 21 -19 40 -35
43 -35 3 0 37 -26 77 -57 70 -57 214 -133 250 -133 10 0 30 -6 45 -14 28 -14
179 -36 249 -36 44 0 143 23 196 45 46 19 116 92 142 148 13 27 33 59 44 71
12 13 23 36 26 52 6 44 15 87 20 102 7 19 -33 130 -59 166 -45 61 -38 65 41
25z m1599 -256 c-12 -142 -15 -462 -5 -538 9 -76 12 -111 10 -137 -1 -16 -4
-16 -33 -4 -18 8 -60 23 -93 35 -33 12 -71 28 -85 36 -14 8 -50 26 -80 40 -30
15 -75 36 -100 48 -73 35 -200 148 -200 178 0 10 5 19 10 19 6 0 10 6 10 14 0
40 119 89 248 101 38 3 42 2 42 -18 0 -12 -4 -28 -8 -35 -11 -17 -3 -70 12
-75 39 -14 96 30 102 79 1 11 11 54 22 95 11 41 26 113 33 162 l12 87 55 0 55
0 -7 -87z m-911 0 c17 -3 36 -10 43 -16 16 -13 256 -72 331 -82 19 -2 36 -6
38 -8 2 -2 -23 -16 -56 -30 -44 -19 -69 -38 -92 -69 -79 -110 -86 -177 -22
-253 20 -25 40 -45 43 -45 3 0 30 -23 60 -50 32 -30 98 -73 160 -104 58 -29
132 -67 165 -84 71 -36 130 -59 204 -77 62 -16 71 -25 71 -77 0 -56 19 -184
41 -273 34 -142 47 -182 80 -252 18 -37 31 -72 30 -77 -1 -5 5 -16 12 -25 8
-9 18 -27 22 -41 15 -50 96 -206 130 -250 19 -25 38 -52 42 -60 16 -35 96
-141 113 -150 10 -5 34 -31 53 -57 34 -46 52 -64 164 -169 29 -27 58 -55 65
-62 7 -6 27 -26 43 -42 32 -33 100 -80 115 -80 4 0 10 -4 12 -8 4 -11 136
-102 147 -102 5 0 14 -6 20 -14 6 -7 24 -16 39 -19 15 -3 48 -22 72 -41 25
-20 50 -36 57 -36 15 0 77 -33 81 -42 2 -5 10 -8 17 -8 7 0 42 -15 77 -33 81
-43 151 -65 373 -116 119 -27 305 -53 381 -53 l62 0 7 -61 c3 -34 6 -88 5
-120 0 -33 4 -73 9 -90 6 -18 12 -57 14 -87 6 -77 35 -255 52 -315 34 -123 51
-451 31 -620 -3 -33 -9 -93 -11 -134 -2 -41 -6 -86 -9 -100 -3 -14 -8 -42 -10
-61 -7 -55 -32 -126 -55 -158 -12 -17 -24 -44 -27 -61 -4 -17 -13 -36 -20 -42
-8 -6 -14 -18 -14 -25 0 -19 -203 -223 -255 -257 -22 -14 -60 -41 -85 -58 -56
-40 -164 -89 -195 -89 -13 0 -26 -4 -29 -8 -16 -27 -422 -32 -523 -7 -61 14
-194 64 -233 86 -8 5 -37 20 -65 35 -44 23 -155 127 -155 146 0 3 -8 9 -19 13
-10 3 -33 35 -51 73 -18 37 -36 74 -41 82 -4 8 -20 40 -35 70 -15 30 -32 61
-38 69 -13 17 -34 92 -41 144 -2 20 -9 46 -15 57 -6 11 -12 49 -14 83 -2 35
-8 79 -14 98 -27 83 -42 181 -41 255 2 114 -10 515 -22 759 -6 116 -13 273
-15 350 -3 77 -9 146 -13 154 -5 7 -5 29 -1 47 4 19 4 36 0 39 -4 2 -13 33
-19 67 -13 69 -72 270 -81 278 -7 5 -16 23 -64 115 -41 81 -68 130 -75 135 -3
3 -18 24 -33 47 -26 40 -185 203 -245 251 -39 31 -127 88 -193 124 -30 17 -64
38 -75 48 -11 9 -57 36 -102 58 -91 46 -233 139 -233 153 0 5 -7 9 -15 9 -9 0
-18 7 -22 15 -3 9 -19 23 -37 32 -17 9 -61 47 -98 84 -37 38 -72 69 -77 69 -5
0 -16 15 -24 33 -9 17 -39 56 -66 86 -27 29 -53 67 -56 83 -4 16 -22 60 -39
96 -45 92 -53 118 -61 187 -21 177 23 353 135 545 20 33 100 110 115 110 7 0
18 7 25 15 7 9 20 13 29 10 9 -4 30 -9 46 -12z m5192 -1032 c88 -110 91 -115
117 -151 62 -87 122 -178 139 -212 11 -21 23 -38 27 -38 5 0 18 -21 31 -47 12
-27 38 -75 58 -108 20 -33 44 -73 54 -90 9 -16 34 -64 53 -105 20 -41 45 -91
55 -111 10 -20 19 -44 19 -52 0 -9 20 -58 44 -109 24 -51 56 -129 71 -173 15
-44 40 -105 54 -135 14 -30 27 -68 28 -83 2 -15 7 -36 12 -45 17 -31 73 -273
67 -288 -11 -28 -72 -44 -171 -44 -87 0 -101 3 -156 30 -33 17 -63 37 -66 46
-3 8 -25 28 -49 45 -24 16 -84 70 -133 119 -49 50 -93 90 -97 90 -5 0 -31 20
-59 45 -63 57 -143 76 -255 62 -85 -11 -188 -69 -242 -137 -72 -90 -138 -200
-149 -249 -6 -25 -13 -53 -16 -61 -9 -22 -10 -28 -18 -110 -4 -41 -9 -84 -11
-95 -11 -56 -4 -247 11 -318 26 -125 62 -240 95 -305 16 -33 30 -62 30 -66 0
-3 11 -24 25 -47 14 -22 23 -43 21 -48 -3 -5 -83 -9 -178 -10 -95 -2 -226 -3
-290 -4 -111 -2 -118 -1 -120 18 0 11 -2 31 -3 45 -6 64 -18 390 -19 525 -3
239 -13 519 -20 535 -4 10 6 21 30 33 19 9 41 17 48 17 7 0 21 9 30 19 10 11
32 25 49 32 36 14 187 117 187 127 0 4 28 30 62 57 80 65 118 102 118 116 0
12 29 51 79 107 50 55 123 168 156 241 9 19 31 58 50 87 19 29 35 59 35 67 0
8 8 25 18 38 18 23 50 118 71 209 25 112 43 334 38 483 -3 114 -1 147 7 133 6
-10 35 -48 63 -85z m-2 -1509 c22 -15 50 -39 63 -54 13 -16 30 -28 37 -28 7 0
32 -24 56 -53 57 -68 164 -167 220 -203 24 -15 54 -37 67 -48 51 -45 325 -56
382 -16 51 36 54 31 70 -98 6 -48 15 -103 20 -122 5 -20 12 -65 15 -100 3 -36
11 -87 16 -115 6 -27 13 -75 15 -105 2 -30 9 -75 14 -100 6 -25 12 -62 15 -83
2 -21 6 -41 9 -45 2 -4 7 -28 10 -54 l7 -48 -93 -1 c-182 -1 -985 -9 -1110
-11 -70 -1 -129 0 -131 3 -22 25 -123 284 -139 354 -25 115 -38 185 -39 210
-1 51 9 192 14 210 4 11 11 60 16 109 11 91 35 158 78 209 13 16 23 34 23 41
0 7 12 26 28 42 15 16 36 40 47 54 70 87 202 111 290 52z m-5820 -1483 c79
-80 155 -138 207 -158 15 -6 46 -23 70 -38 67 -43 71 -46 155 -87 90 -46 116
-57 198 -87 73 -26 114 -46 140 -69 11 -10 32 -20 46 -24 14 -3 57 -36 95 -74
158 -156 186 -223 187 -449 0 -81 -2 -155 -5 -163 -3 -8 -7 -22 -11 -30 -3 -8
-12 -46 -21 -85 -8 -38 -24 -110 -36 -158 -11 -48 -20 -102 -20 -120 0 -18
-16 -65 -36 -106 -19 -40 -33 -75 -30 -78 3 -3 -1 -17 -8 -32 -7 -14 -21 -64
-31 -111 -9 -47 -22 -94 -28 -105 -6 -11 -12 -27 -13 -35 -1 -8 -7 -28 -13
-45 -37 -102 -51 -148 -51 -162 0 -9 -6 -24 -14 -32 -8 -9 -17 -32 -20 -51 -3
-19 -12 -69 -21 -110 -8 -41 -17 -104 -19 -140 -3 -36 -9 -78 -14 -95 -8 -26
-14 -116 -16 -240 0 -22 3 -65 7 -95 4 -30 10 -84 12 -120 4 -75 11 -107 23
-124 5 -6 19 -40 31 -76 13 -35 38 -93 58 -127 19 -35 32 -63 29 -63 -9 0 21
-44 58 -89 48 -55 99 -101 113 -101 7 0 30 -15 50 -34 47 -41 112 -78 178 -99
61 -19 203 -39 217 -31 6 4 48 11 94 15 45 5 111 18 146 29 35 11 86 28 113
37 28 9 55 19 60 23 6 4 35 15 65 25 30 10 64 26 76 36 11 11 27 19 35 19 8 0
23 7 33 15 11 8 28 15 38 15 10 0 21 6 24 14 3 8 19 18 35 21 16 4 29 10 29
15 0 4 12 11 28 15 15 3 43 19 62 34 19 15 42 30 50 34 8 4 35 23 60 42 25 19
56 39 70 45 14 5 36 16 50 24 61 36 208 106 222 106 8 0 23 7 34 15 10 8 26
15 34 15 8 0 29 7 45 16 32 17 110 42 160 50 17 3 68 14 115 25 138 33 307 44
430 29 58 -6 112 -18 120 -24 8 -7 48 -27 89 -46 41 -18 81 -39 90 -47 66 -56
181 -171 181 -180 0 -6 3 -13 8 -15 4 -1 19 -21 34 -43 23 -36 43 -104 88
-303 13 -54 8 -150 -12 -227 -5 -22 -9 -54 -8 -71 0 -17 -6 -37 -15 -44 -8 -7
-15 -24 -15 -39 0 -14 -9 -37 -20 -51 -11 -14 -20 -34 -20 -45 0 -11 -8 -36
-19 -55 -10 -19 -26 -58 -35 -87 -9 -28 -24 -57 -32 -63 -7 -7 -14 -18 -14
-25 0 -7 -7 -18 -15 -25 -8 -7 -15 -24 -15 -37 0 -14 -12 -37 -27 -53 -34 -34
-42 -44 -73 -95 -13 -22 -26 -42 -30 -45 -3 -3 -31 -37 -62 -77 -77 -96 -233
-254 -294 -297 -110 -79 -215 -146 -227 -146 -7 0 -23 -7 -36 -17 -59 -41
-306 -90 -476 -94 -90 -2 -234 11 -241 22 -3 5 -18 9 -33 9 -15 0 -31 4 -37 9
-5 5 -46 18 -91 30 -45 12 -116 34 -157 51 -41 16 -85 30 -98 32 -13 2 -39 13
-59 26 -20 12 -41 22 -47 22 -6 0 -32 9 -59 21 -26 11 -59 23 -73 25 -20 4
-251 111 -332 155 -10 5 -25 9 -33 9 -14 0 -54 18 -65 30 -3 3 -39 20 -80 38
-41 18 -101 46 -132 62 -31 17 -61 30 -65 29 -4 -1 -15 0 -23 3 -44 17 -121
38 -138 38 -10 0 -22 3 -26 7 -19 20 -282 64 -340 58 -17 -2 -67 -6 -112 -10
-96 -7 -214 -34 -269 -62 -94 -48 -111 -57 -130 -74 -11 -10 -34 -31 -51 -46
-17 -16 -47 -40 -66 -55 -22 -17 -39 -40 -43 -58 -4 -16 -10 -30 -15 -30 -9 0
-50 -129 -72 -225 -17 -76 -17 -205 0 -270 7 -27 18 -68 23 -90 5 -22 19 -67
30 -100 11 -33 25 -78 30 -100 6 -22 14 -44 20 -50 5 -5 9 -17 9 -28 0 -10 14
-57 30 -104 17 -46 30 -95 30 -108 0 -13 7 -49 15 -81 20 -76 10 -181 -22
-254 -54 -121 -77 -160 -116 -196 -82 -76 -147 -94 -350 -99 -54 -2 -114 1
-135 6 -20 4 -57 11 -82 14 l-45 6 2 77 c1 42 6 109 12 147 5 39 13 122 16
185 3 63 8 153 11 200 11 179 37 819 35 875 -3 97 3 298 9 315 2 8 8 68 14
150 3 41 8 102 11 135 3 33 8 101 11 150 2 50 7 104 9 120 3 17 7 41 10 55 2
14 9 50 15 80 10 46 17 220 21 475 0 28 5 73 10 100 9 50 14 105 24 270 3 50
10 115 15 145 6 30 12 117 15 192 2 75 9 168 16 205 6 37 13 102 15 143 2 41
6 93 8 115 2 22 7 67 10 100 4 33 9 74 13 90 3 17 7 50 9 75 2 25 6 61 9 80 2
19 6 53 8 76 2 23 7 46 11 53 4 6 5 15 1 21 -3 5 1 40 9 77 8 37 24 142 36
233 11 91 23 181 25 200 3 19 7 59 10 89 3 30 9 70 14 90 5 20 10 59 10 86 0
65 6 122 21 215 7 41 14 102 16 135 1 33 8 98 13 145 20 159 31 265 36 340 3
41 9 95 15 120 5 25 11 79 14 120 3 41 9 98 15 125 5 28 9 57 8 65 -1 14 8 83
20 144 5 29 6 29 17 8 7 -12 48 -59 91 -103z m5956 12 c0 -14 2 -73 5 -131 3
-58 5 -125 4 -150 0 -25 7 -137 15 -250 22 -285 21 -270 29 -420 4 -74 9 -162
13 -195 3 -33 7 -100 9 -150 2 -49 6 -106 10 -125 3 -19 7 -71 9 -115 1 -44 6
-93 10 -108 4 -16 9 -74 11 -130 5 -186 15 -301 26 -314 7 -9 7 -13 0 -13 -12
0 -7 -102 10 -190 6 -30 12 -89 14 -130 9 -157 12 -209 24 -335 6 -71 13 -161
16 -200 3 -38 7 -104 10 -145 4 -41 8 -106 9 -143 2 -38 8 -107 13 -155 5 -48
9 -100 9 -117 1 -16 6 -77 13 -135 13 -122 22 -236 27 -370 2 -52 6 -102 9
-110 3 -8 7 -51 10 -95 2 -44 6 -100 9 -125 7 -60 16 -171 17 -190 0 -8 2 -22
5 -30 3 -8 7 -53 9 -100 9 -215 24 -415 40 -550 4 -25 7 -76 9 -115 2 -38 8
-117 14 -175 6 -58 13 -141 17 -185 3 -44 10 -84 14 -89 5 -5 4 -20 -1 -34 -6
-15 -7 -38 -3 -52 4 -14 8 -59 10 -100 1 -41 6 -100 10 -130 4 -30 8 -75 10
-100 8 -135 17 -227 24 -240 4 -8 6 -55 4 -105 -1 -49 2 -112 7 -140 6 -27 11
-93 13 -145 1 -53 6 -101 10 -108 4 -7 9 -38 11 -70 4 -59 20 -162 30 -197 6
-20 1 -20 -312 -23 -670 -5 -751 -5 -853 2 -58 3 -142 8 -188 11 -46 2 -99 9
-118 15 l-34 12 1 161 c1 163 2 294 1 312 -2 27 -13 353 -13 370 1 139 -2 289
-5 325 -3 25 -5 52 -5 60 1 142 -1 349 -4 480 -3 91 -8 287 -11 435 -4 149 -8
311 -10 360 -1 50 -5 212 -8 360 -5 255 -9 385 -23 655 -4 99 -12 414 -11 490
0 14 -1 36 -2 50 0 14 -3 86 -5 160 -6 244 -15 465 -19 487 -4 21 -9 157 -6
178 4 34 0 317 -5 325 -6 10 -12 141 -20 495 -16 624 -21 783 -28 850 -4 29
-1 55 5 62 7 8 7 13 0 13 -6 0 -10 38 -9 98 0 53 -3 183 -6 289 l-5 192 31 3
c18 2 272 4 565 4 l532 1 1 -26z m-1279 -998 c3 -274 5 -328 12 -448 3 -66 8
-211 11 -323 2 -111 7 -206 10 -211 3 -6 7 -136 10 -290 2 -155 8 -289 12
-299 5 -9 7 -54 5 -99 -3 -66 -7 -83 -19 -83 -20 0 -114 73 -199 156 -99 96
-231 284 -233 330 -1 12 -8 35 -16 50 -8 16 -15 43 -15 59 0 17 -4 35 -8 40
-5 6 -19 44 -31 85 -13 41 -25 82 -28 90 -30 100 -30 367 2 450 7 19 18 62 25
94 7 33 21 73 31 90 11 17 26 45 34 61 9 17 20 37 25 45 5 8 18 35 29 60 11
25 30 55 43 66 12 12 41 43 63 69 48 57 186 151 228 154 4 1 8 -65 9 -146z"/>
<path d="M22356 17848 c-36 -51 -2 -93 71 -89 17 1 24 9 29 38 6 31 3 39 -16
55 -30 24 -66 23 -84 -4z"/>
<path d="M23420 17440 c-80 -15 -190 -88 -190 -126 0 -6 -16 -29 -35 -51 -39
-46 -101 -157 -111 -200 -14 -57 -12 -214 2 -252 20 -50 57 -121 64 -121 4 0
28 -20 54 -45 27 -25 54 -45 61 -45 6 0 26 -7 43 -15 39 -20 177 -31 187 -16
3 6 18 11 33 11 30 0 123 45 135 66 4 8 13 14 20 14 22 0 116 120 147 187 16
35 30 80 30 98 0 19 4 36 8 39 5 3 8 48 6 99 -3 118 -29 178 -115 263 -45 44
-72 62 -116 76 -70 22 -162 30 -223 18z"/>
<path d="M15009 22987 c-19 -12 -41 -37 -49 -54 -14 -30 -16 -31 -42 -17 -31
16 -91 21 -128 9 -39 -12 -90 -54 -90 -75 0 -30 -16 -32 -47 -6 -36 30 -114
44 -151 26 -15 -7 -37 -17 -49 -23 -13 -6 -23 -16 -23 -23 0 -7 -6 -17 -14
-21 -21 -12 -66 -150 -66 -202 0 -25 0 -57 0 -71 0 -14 5 -50 11 -80 5 -30 12
-68 14 -85 3 -16 18 -74 35 -128 38 -120 60 -219 59 -272 0 -99 -73 -155 -209
-162 -161 -8 -208 -27 -275 -111 -50 -64 -65 -103 -65 -178 0 -81 28 -152 79
-201 25 -24 48 -43 53 -43 4 0 27 -9 51 -19 62 -28 98 -32 158 -15 121 33 237
36 247 5 2 -6 13 -25 25 -43 36 -53 74 -185 86 -298 7 -58 16 -143 22 -190 6
-47 12 -103 14 -125 2 -22 6 -67 10 -100 16 -154 25 -247 31 -330 4 -49 8
-110 11 -135 4 -48 10 -203 13 -335 1 -44 1 -219 1 -390 0 -170 0 -314 0 -320
2 -227 -5 -431 -15 -505 -8 -52 -14 -104 -14 -115 -1 -11 -6 -42 -12 -70 -13
-61 -20 -108 -24 -155 -10 -114 -30 -239 -43 -268 -8 -18 -11 -36 -8 -42 3 -5
-6 -59 -20 -119 -14 -60 -27 -136 -28 -168 -2 -32 -8 -67 -14 -78 -6 -11 -14
-54 -18 -95 -4 -41 -9 -84 -12 -95 -3 -11 -11 -54 -18 -95 -7 -41 -20 -97 -28
-125 -39 -129 -50 -161 -68 -194 -10 -20 -19 -40 -19 -46 0 -5 -16 -41 -35
-80 -19 -38 -35 -78 -35 -87 0 -9 -5 -20 -10 -23 -6 -4 -24 -37 -41 -73 -47
-105 -72 -152 -94 -175 -11 -11 -27 -31 -35 -43 -8 -12 -40 -60 -71 -106 -72
-106 -201 -243 -276 -294 -32 -21 -77 -54 -99 -72 -23 -18 -50 -34 -60 -36
-11 -2 -55 -25 -99 -50 -44 -25 -85 -46 -91 -46 -6 0 -17 -6 -23 -14 -18 -21
-244 -89 -336 -102 -73 -9 -153 -23 -190 -32 -68 -17 -281 -32 -468 -33 -98 0
-181 1 -183 4 -8 8 -5 183 4 229 10 53 6 92 -13 108 -17 15 -97 31 -190 39
-183 15 -2573 0 -2630 -17 -16 -5 -39 -6 -50 -1 -11 4 -32 8 -47 8 -16 1 -28
5 -28 10 0 8 -26 13 -135 25 -22 2 -48 -1 -58 -6 -10 -5 -26 -7 -34 -4 -14 6
-14 9 2 26 22 25 149 110 189 128 41 18 123 108 156 172 16 30 44 87 64 125
20 39 39 86 42 105 3 19 17 57 31 84 31 61 37 86 35 156 -1 30 2 62 5 70 11
27 4 314 -10 390 -14 81 -13 100 7 100 24 0 127 62 143 86 8 13 21 24 28 24
28 0 141 201 150 269 21 156 10 221 -60 351 -14 25 -25 50 -25 55 -1 15 -31
47 -63 68 -26 17 -27 20 -12 31 12 8 18 32 22 78 4 61 3 67 -21 86 -25 19 -25
22 -15 76 7 41 7 62 -2 78 -17 34 -51 68 -66 68 -16 0 -16 1 3 62 16 47 16 54
0 104 -9 29 -26 60 -37 67 -11 9 -17 20 -13 30 8 21 -49 147 -72 160 -11 6
-24 16 -31 22 -15 15 -142 27 -203 19 -35 -5 -47 -3 -47 7 -2 34 -33 144 -43
147 -5 2 -10 17 -10 34 0 17 -11 51 -24 77 -14 25 -32 69 -41 98 -9 28 -23 57
-31 63 -7 7 -14 18 -14 24 0 15 -77 166 -95 186 -8 9 -15 22 -15 28 0 11 -53
71 -165 185 -50 51 -204 167 -221 167 -4 0 -28 10 -54 22 -47 21 -48 23 -52
73 -7 88 -69 145 -157 145 -82 0 -131 -44 -162 -147 -8 -29 -18 -43 -29 -43
-10 0 -44 -13 -76 -29 -32 -16 -88 -42 -124 -59 -36 -16 -71 -37 -79 -46 -7
-9 -19 -16 -26 -16 -7 0 -35 -20 -62 -45 -26 -25 -61 -55 -78 -67 -26 -18
-112 -124 -167 -207 -23 -33 -38 -68 -38 -86 0 -8 -5 -17 -11 -21 -12 -7 -43
-75 -64 -139 -7 -22 -22 -65 -33 -95 -18 -51 -39 -156 -45 -225 l-2 -30 -85
-8 c-77 -7 -91 -12 -151 -52 -76 -50 -114 -110 -107 -170 4 -33 2 -35 -25 -35
-20 0 -40 -11 -63 -34 -31 -31 -34 -39 -34 -96 0 -49 -3 -60 -12 -52 -7 5 -31
13 -54 16 -49 8 -110 -22 -125 -61 -16 -44 -9 -125 16 -183 l24 -55 -37 -16
c-50 -22 -61 -38 -63 -90 -2 -43 22 -109 40 -109 5 0 20 -12 35 -27 l27 -26
-24 -26 c-33 -36 -72 -100 -85 -139 -6 -19 -14 -86 -18 -150 -5 -101 -3 -126
14 -180 21 -65 94 -172 118 -172 8 0 14 -6 14 -14 0 -34 165 -146 215 -146 15
0 16 -5 11 -32 -4 -18 -10 -68 -12 -112 -3 -43 -7 -95 -9 -115 -2 -20 -7 -93
-11 -164 -5 -103 -3 -138 11 -185 9 -31 21 -75 27 -97 6 -22 24 -64 40 -92 15
-29 28 -59 28 -66 0 -33 156 -211 231 -263 24 -16 59 -44 78 -62 20 -19 53
-45 74 -59 20 -14 37 -30 37 -34 0 -5 -28 -9 -62 -9 -84 0 -189 -21 -264 -53
-55 -23 -129 -37 -279 -53 -27 -3 -61 -9 -75 -13 -14 -5 -63 -17 -110 -26 -47
-10 -103 -22 -125 -28 -22 -5 -47 -12 -55 -13 -8 -2 -35 -8 -60 -13 -25 -5
-86 -25 -137 -45 -50 -19 -102 -37 -115 -40 -23 -4 -97 -24 -171 -46 -34 -10
-104 -43 -162 -78 -28 -16 -112 -52 -122 -52 -5 0 -25 -9 -46 -20 -20 -11 -37
-18 -37 -15 0 7 -76 -31 -110 -55 -14 -9 -40 -22 -57 -28 -18 -6 -45 -22 -60
-36 -15 -14 -33 -26 -39 -26 -7 0 -33 -17 -59 -39 -25 -21 -59 -45 -73 -52
-15 -8 -30 -19 -35 -26 -4 -6 -32 -26 -62 -43 -30 -17 -61 -37 -68 -43 -7 -7
-28 -20 -48 -30 -19 -10 -54 -36 -76 -57 -23 -21 -53 -45 -67 -52 -27 -14
-130 -111 -188 -176 -20 -23 -38 -42 -40 -42 -6 0 -353 -350 -385 -388 -18
-22 -33 -43 -33 -48 0 -5 -11 -20 -25 -34 -45 -47 -92 -105 -136 -170 -24 -36
-52 -73 -61 -82 -10 -10 -29 -35 -42 -57 -14 -22 -30 -42 -35 -46 -6 -3 -18
-21 -27 -40 -9 -19 -20 -35 -24 -35 -5 0 -14 -16 -20 -35 -6 -19 -16 -35 -21
-35 -5 0 -9 -4 -9 -10 0 -5 -7 -18 -16 -27 -20 -22 -78 -117 -99 -160 -8 -18
-40 -72 -72 -120 -31 -48 -64 -106 -74 -128 -10 -22 -28 -53 -39 -70 -11 -16
-20 -38 -20 -47 0 -10 -4 -18 -10 -18 -5 0 -10 -8 -10 -18 0 -10 -4 -22 -9
-27 -4 -6 -16 -32 -26 -60 -10 -27 -38 -92 -62 -143 -23 -52 -43 -103 -43
-115 0 -12 -11 -44 -25 -71 -14 -27 -25 -57 -25 -65 -1 -9 -10 -41 -21 -71
-11 -30 -24 -71 -29 -90 -4 -19 -11 -44 -13 -55 -3 -11 -10 -33 -17 -50 -11
-30 -16 -75 -25 -230 -2 -44 -7 -107 -10 -140 -5 -44 -3 -68 8 -88 27 -51 101
-89 150 -76 39 10 71 1 56 -17 -6 -8 -13 -41 -15 -73 -3 -33 -11 -75 -18 -93
-18 -42 -61 -247 -77 -363 -7 -49 -16 -98 -21 -107 -4 -9 -11 -49 -13 -89 -3
-40 -9 -77 -12 -82 -4 -6 -8 -20 -9 -31 -1 -12 -5 -50 -8 -86 -4 -36 -13 -92
-22 -125 -8 -33 -17 -100 -20 -150 -3 -49 -9 -101 -14 -115 -12 -32 -29 -123
-34 -180 -4 -46 -29 -173 -39 -200 -3 -8 -8 -31 -11 -51 -3 -20 -9 -47 -14
-60 -5 -13 -12 -55 -16 -94 -7 -72 -16 -115 -42 -195 -7 -25 -16 -72 -18 -105
-2 -33 -7 -67 -9 -75 -6 -15 -13 -60 -21 -118 -2 -18 -8 -38 -13 -45 -5 -7
-10 -28 -12 -47 -1 -19 -8 -55 -16 -80 -21 -69 -73 -304 -90 -410 -9 -52 -22
-115 -30 -140 -7 -25 -16 -77 -19 -116 -6 -74 -27 -168 -45 -203 -10 -18 -25
-112 -36 -216 -2 -22 -15 -83 -30 -135 -14 -52 -28 -106 -30 -120 -15 -105
-28 -172 -39 -215 -8 -27 -17 -79 -21 -115 -4 -36 -11 -83 -17 -105 -6 -22
-12 -53 -14 -70 -2 -16 -7 -37 -10 -45 -4 -8 -10 -33 -14 -55 -5 -22 -11 -51
-14 -65 -4 -14 -11 -61 -16 -105 -4 -44 -13 -91 -18 -105 -14 -35 -31 -102
-31 -120 1 -46 -14 -152 -32 -240 -13 -59 -29 -140 -33 -165 -18 -113 -20
-124 -29 -145 -12 -31 -20 -76 -18 -100 1 -14 -7 -61 -19 -104 -11 -44 -20
-97 -20 -118 0 -21 -4 -46 -9 -56 -16 -29 -32 -133 -36 -232 -5 -98 -10 -137
-25 -180 -5 -14 -11 -77 -14 -140 -2 -63 -7 -146 -11 -185 -18 -183 -1 -230
80 -224 34 2 175 -1 270 -6 50 -2 178 -7 285 -10 107 -3 229 -7 270 -10 41 -3
158 -5 260 -5 102 0 194 0 205 -1 11 -1 74 -3 140 -5 66 -2 170 -6 230 -9 61
-2 160 -4 220 -4 127 0 115 1 345 -6 358 -10 1065 -25 1405 -30 138 -2 358 -7
490 -10 132 -4 377 -8 545 -10 168 -3 404 -7 525 -10 784 -18 978 -20 995 -10
7 4 15 3 19 -3 4 -6 175 -12 481 -17 464 -6 605 -8 1310 -20 190 -3 366 -8
392 -10 52 -6 90 8 121 44 20 25 21 38 5 56 -7 8 -19 21 -26 29 -8 10 -14 59
-16 133 -3 65 -7 141 -11 168 -3 28 -8 102 -10 165 -3 63 -7 133 -9 155 -3 22
-7 74 -10 115 -9 124 -16 218 -27 365 -14 177 -18 234 -24 365 -3 58 -7 137
-10 175 -3 39 -7 117 -10 175 -3 58 -9 125 -12 150 -4 25 -5 49 -4 54 2 9 -13
203 -29 379 -14 160 -19 239 -31 477 -12 260 -16 310 -28 420 -6 47 -10 101
-10 120 1 19 0 38 -1 43 -1 4 -3 10 -4 15 -1 4 -6 77 -10 162 -4 85 -9 171
-11 190 -2 19 -7 80 -10 135 -3 55 -10 141 -15 190 -5 50 -12 153 -16 230 -3
77 -8 143 -10 147 -2 3 -6 55 -9 115 -2 59 -9 167 -15 238 -6 72 -13 166 -15
210 -2 44 -7 109 -10 145 -9 94 -14 155 -30 410 -2 41 -5 93 -4 115 0 22 -5
74 -11 115 -6 41 -13 133 -15 203 -3 71 -8 133 -11 139 -3 5 -8 67 -10 136 -3
118 -9 211 -19 307 -4 39 -12 162 -20 300 -2 39 -5 77 -5 85 -12 115 -23 260
-25 320 -1 41 -5 107 -9 145 -14 128 -17 119 34 127 25 4 72 10 105 13 33 4
63 9 67 11 4 3 35 7 69 10 35 3 66 7 70 10 4 2 50 8 104 14 53 5 106 15 118
21 12 7 35 12 51 11 17 0 35 3 41 7 26 21 260 68 383 77 29 2 57 6 62 9 8 5
156 22 270 31 36 2 106 11 155 19 50 7 125 18 168 23 42 5 84 16 93 23 9 7 23
14 31 15 21 3 81 62 99 96 8 15 14 38 14 51 0 12 4 27 10 33 21 21 39 288 43
669 2 134 3 140 22 137 87 -16 193 -7 245 19 9 4 63 10 120 13 58 4 139 9 180
12 41 3 109 7 150 8 41 2 110 13 152 25 42 11 87 21 100 21 51 0 210 28 220
38 7 7 24 12 39 12 15 0 31 4 34 10 3 5 25 14 48 20 23 6 58 15 77 21 19 6 42
12 50 13 16 3 48 10 120 28 25 6 50 15 55 19 14 10 80 35 150 54 147 42 346
122 360 144 2 5 20 12 39 15 19 4 39 13 46 21 7 8 22 15 33 15 11 0 28 6 36
14 9 7 44 24 78 36 41 15 79 38 115 72 29 27 68 56 86 64 19 7 46 27 62 44 15
16 37 30 48 30 10 0 52 22 93 48 41 27 82 53 91 58 22 12 152 129 187 168 42
47 113 116 120 116 4 0 15 15 26 33 10 17 48 62 84 99 36 36 77 85 91 108 14
22 49 78 79 123 29 45 53 84 53 87 0 3 9 22 19 42 10 21 19 44 19 53 0 8 9 23
19 32 11 9 18 20 15 25 -3 4 0 8 5 8 6 0 10 3 9 8 -3 7 37 125 52 153 5 9 12
34 15 55 7 44 33 141 42 164 4 8 8 20 8 25 1 6 5 17 8 25 3 8 13 40 22 70 8
30 21 71 27 89 6 19 12 51 13 71 1 19 7 45 13 57 7 12 12 37 12 56 0 19 7 51
15 71 16 37 30 169 46 431 5 83 14 202 20 265 6 63 10 144 9 180 -1 36 -2 160
-1 275 2 491 2 596 -4 705 -3 63 -5 156 -5 205 1 50 -4 133 -10 185 -16 136
-17 148 -24 159 -4 6 -6 59 -6 118 1 144 1 164 -7 176 -3 5 -8 39 -10 76 -3
36 -9 73 -14 83 -6 10 -12 76 -15 146 -2 70 -7 152 -10 182 -3 30 -5 70 -4 87
0 18 -6 59 -14 90 -16 63 -25 156 -31 333 -5 127 -9 163 -21 182 -5 7 -10 36
-10 63 -1 28 -7 71 -12 97 -6 25 -16 97 -22 160 -6 62 -13 133 -15 158 -3 25
-14 74 -24 110 -23 80 -34 127 -37 160 -6 86 -28 212 -45 254 -10 27 -19 57
-19 66 0 10 -6 23 -14 29 -8 7 -16 42 -20 89 -13 153 -21 196 -42 227 -8 11
-14 31 -14 46 0 15 -6 42 -14 60 -8 19 -17 63 -21 99 -4 36 -13 79 -20 95 -7
17 -16 46 -19 66 -4 21 -13 42 -21 49 -8 7 -15 23 -15 36 0 12 -4 25 -9 28 -5
4 -14 29 -20 57 -6 29 -18 66 -25 83 -8 17 -20 49 -27 71 -7 22 -17 45 -22 52
-10 14 -26 44 -101 186 -28 54 -56 107 -62 118 -12 22 -111 96 -162 123 -43
22 -83 20 -123 -7z m169 -167 c12 -11 22 -25 22 -30 0 -4 10 -30 22 -57 12
-26 22 -51 22 -54 1 -4 16 -29 34 -57 17 -27 32 -56 32 -65 0 -8 6 -20 14 -26
8 -7 18 -27 22 -44 3 -18 15 -50 25 -71 11 -22 19 -46 19 -54 0 -22 48 -151
65 -175 8 -12 15 -38 15 -59 0 -20 5 -40 10 -43 6 -4 10 -12 8 -18 -2 -10 9
-71 17 -97 1 -3 5 -27 9 -55 5 -27 19 -76 32 -108 12 -31 25 -80 28 -108 3
-28 9 -55 12 -61 4 -5 8 -38 9 -72 2 -33 11 -81 20 -106 27 -76 57 -202 60
-255 4 -73 16 -158 26 -177 5 -9 9 -26 9 -38 0 -11 7 -31 15 -44 8 -12 17 -45
19 -72 3 -27 8 -83 11 -124 4 -41 9 -88 11 -105 3 -16 10 -75 15 -130 5 -55
16 -116 24 -135 8 -19 14 -48 15 -65 1 -16 3 -88 6 -160 6 -167 9 -203 24
-240 7 -16 14 -77 16 -135 9 -290 18 -385 45 -505 6 -27 12 -124 14 -215 1
-91 5 -178 8 -195 25 -136 36 -364 39 -805 2 -150 -7 -368 -14 -375 -2 -2 0
-37 3 -77 7 -80 3 -398 -6 -438 -14 -67 -17 -95 -20 -225 -2 -77 -8 -164 -13
-193 -5 -29 -7 -63 -5 -76 3 -14 0 -48 -7 -78 -7 -29 -18 -80 -25 -113 -7 -33
-20 -86 -29 -118 -9 -31 -18 -72 -20 -90 -2 -17 -13 -57 -24 -87 -29 -80 -52
-160 -52 -180 0 -10 -7 -34 -15 -54 -8 -20 -12 -36 -8 -36 4 0 2 -5 -5 -12 -7
-7 -12 -22 -12 -33 0 -12 -3 -25 -7 -29 -4 -4 -8 -13 -8 -19 -1 -7 -16 -43
-34 -82 -19 -38 -39 -86 -45 -105 -18 -55 -140 -231 -232 -332 -46 -51 -83
-96 -84 -100 0 -16 -273 -273 -305 -288 -18 -8 -42 -24 -54 -34 -11 -10 -33
-25 -50 -34 -54 -30 -156 -94 -161 -101 -3 -4 -21 -17 -40 -28 -19 -12 -44
-30 -55 -40 -32 -28 -156 -95 -230 -124 -88 -35 -124 -53 -129 -65 -3 -8 -17
-14 -31 -14 -15 0 -33 -7 -41 -15 -8 -8 -33 -19 -54 -25 -22 -6 -42 -15 -45
-20 -3 -6 -17 -10 -30 -10 -32 0 -150 -37 -196 -61 -20 -10 -44 -19 -53 -19
-8 0 -30 -9 -48 -20 -18 -11 -48 -20 -67 -20 -34 0 -140 -24 -176 -39 -11 -5
-38 -17 -60 -27 -57 -25 -171 -54 -235 -60 -99 -9 -198 -28 -243 -46 -16 -6
-77 -12 -135 -13 -59 -1 -118 -5 -132 -8 -14 -4 -54 -9 -90 -11 -102 -7 -183
-18 -203 -28 -32 -16 -170 -48 -187 -43 -14 4 -16 20 -13 113 6 176 6 255 -1
517 -8 312 -7 356 4 430 9 54 6 239 -5 307 l-4 26 177 -3 c97 -1 218 1 267 6
50 5 115 11 145 14 30 2 78 9 105 15 95 20 200 41 235 46 19 3 58 11 85 19 28
8 77 22 110 32 33 9 71 25 84 35 13 10 32 18 42 18 11 0 19 5 19 10 0 9 34 27
180 93 30 14 64 34 76 45 11 11 40 32 64 47 55 35 66 44 98 78 15 15 31 27 35
27 12 0 102 92 124 128 31 48 125 175 175 235 26 32 48 62 48 67 0 5 11 26 25
46 14 20 25 45 25 54 0 10 15 48 34 86 57 118 93 198 101 224 4 14 15 39 25
55 10 17 30 66 44 110 38 113 44 134 51 185 3 25 10 59 15 75 5 17 11 53 14
80 3 28 13 86 21 130 9 44 18 100 21 125 2 25 9 69 14 99 5 29 7 57 4 62 -3 5
0 18 6 29 6 11 13 37 16 58 2 20 13 84 24 142 10 58 24 148 30 200 7 52 16
115 22 140 5 25 11 63 14 85 2 22 9 74 15 115 8 50 12 272 12 660 1 679 -7
887 -43 1150 -6 41 -17 127 -25 190 -7 63 -19 153 -24 200 -29 236 -36 274
-75 440 -8 36 -17 81 -20 100 -4 20 -14 51 -24 70 -11 19 -22 47 -26 62 -7 32
-58 76 -109 93 -48 16 -182 9 -214 -12 -35 -23 -132 -21 -182 3 -53 25 -75 65
-74 131 3 105 85 180 186 170 63 -6 219 32 250 61 12 11 32 25 45 31 12 6 22
18 22 25 0 8 6 19 14 25 13 11 18 24 35 103 9 41 -6 147 -35 243 -10 33 -19
62 -19 65 -1 3 -5 12 -8 20 -13 30 -49 236 -51 287 -3 68 33 188 61 208 19 13
25 13 60 -6 21 -11 43 -30 49 -42 42 -82 53 -112 69 -197 10 -52 26 -120 35
-150 10 -30 21 -73 25 -95 10 -62 71 -228 87 -238 10 -7 23 -4 41 8 36 23 36
29 -4 207 -6 26 -12 58 -14 70 -6 45 -26 134 -45 198 -11 36 -22 79 -24 95 -3
17 -10 47 -16 68 -12 39 -6 106 12 140 13 25 56 21 94 -8 31 -24 74 -100 74
-131 0 -7 11 -37 24 -66 14 -29 32 -80 41 -113 9 -33 32 -109 51 -169 61 -191
89 -235 134 -213 14 7 27 23 29 37 3 23 -28 139 -66 250 -9 25 -28 88 -43 140
-16 52 -33 108 -39 124 -37 93 -62 232 -45 249 6 6 82 -46 122 -83z m-6786
-2672 c22 -29 19 -54 -7 -50 -11 1 -48 2 -83 2 l-63 1 21 29 c12 16 29 34 38
40 26 15 74 4 94 -22z m76 -174 c32 -9 64 -23 73 -30 8 -8 19 -14 24 -14 4 0
27 -16 51 -35 23 -19 46 -35 51 -35 5 0 35 -30 68 -67 33 -37 79 -86 103 -109
23 -23 42 -48 42 -56 0 -9 8 -26 18 -39 10 -13 22 -31 25 -39 4 -8 11 -22 17
-30 5 -8 21 -40 35 -70 14 -30 36 -75 50 -100 13 -25 24 -51 24 -58 1 -7 9
-31 20 -55 29 -66 61 -162 61 -185 0 -11 5 -24 10 -27 33 -20 -15 -55 -75 -55
-18 0 -45 -4 -59 -10 -14 -5 -62 -12 -108 -15 -45 -4 -85 -7 -88 -7 -3 0 -13
0 -23 1 -17 1 -16 3 2 29 17 24 18 36 10 112 -5 47 -15 114 -23 150 -8 36 -20
97 -26 135 -17 102 -37 161 -84 242 -42 74 -61 92 -80 73 -8 -8 -4 -23 12 -53
12 -23 22 -50 22 -59 0 -9 4 -19 8 -22 10 -6 27 -82 41 -186 6 -41 16 -109 23
-150 6 -41 13 -95 14 -120 1 -25 4 -68 7 -96 l5 -51 -46 -7 c-26 -4 -101 -9
-167 -12 -66 -2 -151 -6 -188 -8 -61 -4 -67 -3 -63 12 3 9 8 56 11 104 6 99
22 236 29 247 16 25 32 409 18 423 -13 13 -44 -43 -65 -117 -23 -84 -48 -331
-53 -514 -3 -85 -6 -156 -8 -158 -3 -3 -130 -3 -251 1 -72 3 -135 15 -135 27
0 22 33 170 50 224 10 33 22 76 25 95 4 19 13 49 20 65 38 86 84 226 100 303
9 45 -9 42 -59 -11 -44 -45 -96 -137 -96 -167 0 -11 -4 -21 -9 -24 -7 -5 -23
-57 -71 -241 -10 -38 -18 -79 -19 -90 0 -11 -4 -51 -7 -88 l-6 -69 -32 6 c-17
3 -65 11 -106 17 -41 6 -87 17 -102 25 -15 8 -41 14 -58 14 -32 0 -32 0 -25
43 11 65 63 210 101 283 19 36 34 72 34 79 0 8 11 31 25 51 14 20 25 44 25 53
0 9 18 36 40 61 22 25 59 73 83 107 23 35 46 63 50 63 11 0 33 18 81 66 23 22
52 45 66 52 14 6 43 23 65 36 83 52 152 79 215 86 116 13 220 11 278 -6z m985
-1048 c21 -5 33 -18 47 -52 11 -25 20 -61 20 -80 0 -102 -159 -210 -378 -255
-52 -10 -99 -22 -105 -26 -11 -7 -69 -15 -239 -31 l-77 -7 4 88 c7 131 -16
207 -57 192 -25 -10 -29 -31 -29 -138 0 -69 -4 -108 -15 -128 l-15 -29 -127
-1 c-70 0 -184 -2 -254 -5 l-127 -3 4 106 c4 122 -4 153 -39 153 -13 0 -26 -7
-30 -15 -12 -33 -16 -114 -8 -178 l9 -68 -171 6 c-187 6 -244 12 -263 27 -19
16 -34 82 -37 166 -3 65 -7 78 -26 94 -21 17 -25 17 -39 4 -19 -20 -22 -123
-5 -191 8 -27 12 -50 11 -51 -5 -5 -121 17 -160 30 -23 8 -58 17 -77 21 -32 7
-110 74 -110 95 0 4 -16 27 -35 50 -28 34 -35 50 -35 85 0 60 32 97 101 114
77 20 142 14 284 -24 28 -8 82 -16 120 -20 39 -3 84 -10 100 -15 53 -17 207
-29 375 -29 36 0 97 -1 135 -2 39 0 77 -1 85 -1 14 0 99 4 380 17 280 13 388
27 492 66 84 31 209 56 238 48 14 -4 38 -10 53 -13z m-540 -540 c-7 -45 9 -72
60 -97 23 -12 43 -23 45 -24 2 -2 -4 -15 -13 -29 -19 -29 -17 -105 4 -130 6
-8 40 -24 74 -37 34 -12 63 -23 65 -24 4 -3 -34 -167 -50 -215 -6 -19 -19 -46
-29 -59 -11 -13 -19 -29 -19 -36 0 -6 -9 -22 -20 -35 -11 -13 -20 -26 -20 -29
0 -19 -114 -96 -159 -107 -45 -12 -55 -12 -94 5 -100 43 -360 76 -405 52 -12
-6 -22 -8 -23 -4 0 4 -2 53 -4 108 -7 196 -27 283 -75 322 -18 15 -65 17 -91
3 -29 -16 -72 -114 -85 -198 -3 -19 -10 -46 -14 -58 -5 -13 -10 -57 -11 -98
l-3 -75 -25 7 c-14 4 -71 7 -126 6 -95 -1 -104 -2 -170 -37 -38 -20 -78 -37
-88 -37 -9 0 -34 -10 -55 -23 -105 -65 -150 -74 -223 -44 -31 12 -42 29 -69
97 -15 38 -21 85 -26 191 -3 78 -9 172 -13 209 -6 60 -5 68 9 60 19 -10 110
-1 128 13 29 23 52 85 48 130 -3 45 -2 46 42 68 48 25 94 82 85 107 -5 13 1
14 44 8 151 -20 642 -28 838 -14 190 13 449 45 472 57 1 1 -1 -14 -4 -33z
m764 -318 c57 -33 80 -65 104 -143 18 -59 20 -84 15 -159 -6 -94 -23 -135 -80
-201 -14 -16 -26 -34 -26 -39 0 -12 -100 -105 -132 -121 -26 -15 -26 -14 -34
28 -4 23 -8 58 -9 77 -2 19 -8 62 -14 95 -6 33 -13 94 -15 135 -3 41 -7 126
-11 188 l-7 112 24 0 c14 0 45 11 69 24 55 31 69 31 116 4z m-2693 -103 c9 -9
16 -22 17 -28 0 -7 2 -21 5 -32 13 -61 16 -177 5 -221 -12 -53 -19 -105 -26
-203 -6 -98 -17 -171 -24 -171 -3 0 -23 11 -43 25 -20 14 -41 25 -46 25 -4 0
-18 10 -29 23 -11 12 -29 30 -39 39 -98 89 -120 164 -99 338 11 89 78 180 150
206 50 17 111 17 129 -1z m1233 -70 c12 -54 9 -369 -4 -437 -10 -46 -27 -78
-44 -78 -23 0 -38 73 -34 163 8 159 13 197 51 370 9 39 19 33 31 -18z m-581
-2073 c5 -5 44 -20 88 -33 l78 -24 -6 -134 c-7 -144 -3 -161 40 -161 32 0 41
24 54 152 5 56 14 106 18 110 4 4 44 1 87 -7 146 -28 458 -14 577 26 31 10 59
19 61 19 2 0 7 -24 10 -53 7 -70 43 -191 61 -206 11 -9 19 -9 35 1 25 15 27
55 7 143 -7 33 -16 78 -20 101 l-6 41 68 -1 c37 0 117 6 177 13 144 18 206 16
286 -12 73 -24 124 -62 139 -102 12 -33 13 -119 1 -143 -5 -9 -17 -37 -27 -61
-22 -52 -105 -141 -132 -141 -10 0 -27 -9 -37 -20 -25 -28 -54 -40 -230 -94
-158 -49 -160 -50 -242 -61 -29 -4 -56 -11 -59 -16 -3 -5 -17 -9 -32 -8 -46 2
-215 -12 -247 -21 -33 -8 -429 -5 -480 3 -16 3 -57 9 -90 12 -52 6 -137 21
-225 40 -38 9 -71 15 -110 22 -19 3 -47 12 -62 19 -15 8 -34 14 -42 14 -8 0
-59 25 -113 56 -101 59 -165 118 -195 183 -20 41 -23 122 -7 153 17 31 85 98
101 98 7 0 26 7 43 16 55 28 201 60 320 69 38 3 71 8 74 10 7 8 26 6 37 -3z
m4099 -55 c6 0 90 3 188 7 l177 6 2 -28 c0 -15 1 -34 0 -42 -4 -57 -3 -275 2
-320 12 -108 15 -247 6 -286 -5 -21 -9 -174 -8 -339 3 -393 2 -447 -6 -795 -4
-162 -9 -376 -11 -475 -5 -259 -25 -395 -63 -427 -36 -31 -101 -45 -287 -63
-22 -2 -61 -6 -85 -10 -25 -4 -79 -10 -120 -15 -72 -7 -105 -13 -160 -26 -14
-4 -50 -8 -80 -9 -92 -5 -306 -51 -395 -85 -27 -10 -75 -23 -105 -29 -84 -16
-229 -42 -285 -51 -27 -5 -84 -16 -125 -25 -145 -32 -137 -33 -143 17 -4 23
-9 97 -13 163 -3 66 -8 140 -10 165 -9 119 -16 199 -19 245 -1 28 -4 50 -5 50
-1 0 -3 41 -5 90 -1 50 -6 119 -10 155 -4 36 -8 88 -10 115 -1 28 -6 97 -9
155 -10 161 -26 306 -37 339 -11 30 -54 55 -85 49 -27 -5 -35 -54 -23 -142 6
-43 9 -93 8 -110 -1 -17 0 -44 4 -61 3 -16 9 -91 12 -165 7 -146 10 -188 18
-265 4 -27 9 -106 12 -175 10 -212 16 -314 21 -322 5 -7 8 -64 18 -303 3 -60
8 -139 11 -175 13 -132 15 -157 19 -235 3 -44 8 -129 11 -190 3 -60 10 -132
15 -160 5 -27 9 -70 8 -95 -1 -25 2 -83 6 -130 9 -110 12 -158 20 -315 7 -127
9 -150 21 -305 3 -41 8 -106 10 -145 3 -38 7 -92 9 -120 2 -27 6 -101 10 -164
3 -63 8 -122 10 -130 3 -9 8 -63 12 -121 3 -58 8 -127 10 -155 2 -27 5 -70 8
-95 2 -25 7 -94 10 -155 4 -60 9 -132 11 -160 3 -27 7 -93 10 -145 7 -121 16
-223 20 -230 2 -3 6 -75 10 -160 3 -85 9 -175 11 -200 3 -25 10 -110 15 -190
17 -261 18 -275 22 -300 3 -14 8 -86 11 -160 11 -217 16 -303 20 -309 4 -6 19
-213 19 -261 0 -14 4 -70 8 -125 5 -55 11 -149 14 -210 3 -60 12 -171 20 -245
8 -74 15 -153 14 -175 -1 -22 1 -78 5 -125 13 -170 26 -363 32 -495 3 -60 9
-130 13 -155 4 -25 8 -88 10 -140 1 -52 5 -98 7 -102 3 -5 7 -50 9 -101 6
-138 20 -317 29 -382 2 -16 7 -73 11 -125 3 -52 10 -147 16 -210 5 -63 12
-163 16 -222 l6 -106 -78 -7 c-43 -4 -176 -4 -294 1 -217 8 -245 8 -291 5 -14
-1 -90 1 -170 4 -80 4 -176 6 -215 5 -38 -1 -77 -1 -85 -1 -8 0 -98 3 -200 6
-102 4 -198 7 -215 7 -16 1 -46 0 -65 -1 -29 -1 -161 1 -555 10 -22 1 -51 1
-65 0 -34 -1 -479 7 -785 14 -137 4 -387 8 -555 11 -168 2 -435 7 -595 9 -159
3 -436 8 -615 11 -179 2 -451 7 -605 10 -541 9 -940 16 -975 15 -35 -1 -65 0
-153 2 l-48 1 6 41 c4 22 13 67 22 99 8 33 15 69 15 80 0 12 5 35 10 52 5 18
13 54 18 80 4 27 11 60 14 74 4 14 7 49 8 78 1 28 5 52 9 52 4 0 11 21 14 48
4 26 11 58 16 72 5 14 13 57 19 95 5 39 14 93 20 120 6 28 12 65 15 83 2 18 7
37 10 43 4 5 11 38 17 72 5 34 13 82 18 107 41 228 50 271 55 279 3 5 12 60
20 123 14 110 26 177 47 268 5 25 12 65 14 90 3 25 8 59 13 75 5 17 9 37 9 45
0 8 8 49 16 90 17 79 34 165 42 215 3 17 12 68 20 115 8 47 19 114 25 150 5
36 14 79 19 95 5 17 11 50 14 75 13 107 28 196 36 215 7 18 21 85 35 180 3 17
12 66 20 110 8 44 17 98 20 120 8 65 12 86 34 180 19 80 26 126 34 230 1 17 6
37 12 45 8 14 20 74 30 167 3 23 9 53 15 67 5 14 12 47 15 73 10 78 34 214 40
223 5 8 22 111 31 185 3 22 9 55 14 74 5 19 7 38 4 42 -3 5 -1 17 5 27 5 10
12 42 15 72 3 30 12 86 20 123 8 38 20 110 26 160 6 51 16 112 22 137 20 84
30 135 33 165 2 17 6 41 10 55 4 14 8 36 10 50 1 14 4 32 8 40 3 8 6 22 6 30
4 56 11 104 21 141 7 23 13 59 15 78 3 20 11 70 19 111 8 41 24 131 35 200 12
69 30 171 41 228 12 56 19 106 16 110 -3 5 -1 14 4 22 9 15 38 15 210 0 63 -5
131 -9 150 -9 19 0 53 0 74 0 46 0 101 39 112 79 3 14 19 72 34 130 52 193 69
264 91 380 12 63 22 120 21 125 0 6 -1 21 -2 35 -1 14 0 36 3 50 7 37 16 115
22 197 3 40 12 91 20 114 8 23 15 61 15 85 0 23 5 55 11 71 11 27 18 130 23
343 2 58 10 137 19 175 33 142 40 305 16 353 -30 58 -62 66 -101 25 -20 -22
-28 -45 -36 -108 -6 -44 -21 -141 -32 -215 -15 -92 -22 -197 -25 -330 -2 -108
-8 -208 -14 -223 -6 -16 -11 -43 -11 -61 0 -19 -6 -49 -14 -67 -8 -19 -17 -72
-21 -119 -4 -47 -9 -103 -11 -125 -2 -22 -4 -84 -4 -139 0 -54 -4 -115 -9
-135 -5 -20 -15 -70 -21 -111 -7 -41 -16 -88 -22 -105 -8 -26 -16 -67 -43
-220 -10 -57 -27 -87 -44 -80 -20 8 -274 34 -282 29 -3 -2 -33 1 -65 6 -32 5
-90 11 -129 14 -38 2 -113 15 -165 29 -52 13 -122 25 -155 26 -33 1 -81 8
-107 16 -25 7 -49 11 -52 8 -3 -4 -17 0 -31 7 -20 11 -42 11 -115 2 -59 -7
-100 -8 -116 -2 -33 13 -125 29 -199 35 -33 3 -91 10 -130 15 -38 5 -92 12
-120 14 -27 3 -84 10 -125 16 -41 6 -127 15 -190 20 -63 5 -146 14 -185 20
-38 6 -97 12 -130 13 -48 2 -59 5 -56 17 2 8 5 58 6 110 3 105 12 192 26 260
14 64 69 233 80 245 5 5 9 18 9 30 0 11 9 38 20 60 11 22 20 47 20 56 0 10 7
30 15 46 23 45 86 191 90 211 2 9 11 33 20 52 10 19 34 69 54 110 20 41 39 80
44 85 4 6 26 39 48 75 23 36 45 67 48 70 4 3 13 21 21 40 7 19 21 44 30 55 9
11 24 37 34 57 9 20 28 50 41 67 14 16 31 40 38 53 6 12 35 56 62 96 28 40 55
81 60 90 9 16 54 72 90 115 8 9 15 20 15 23 0 4 14 20 30 36 16 15 30 30 30
33 0 3 8 13 18 23 9 10 25 29 34 42 72 101 108 142 189 218 52 48 176 169 278
270 101 100 189 182 195 182 6 0 26 15 45 32 19 18 52 42 73 53 21 11 51 32
66 46 15 15 47 36 71 48 24 13 78 48 120 79 106 79 131 96 169 111 17 7 32 16
32 20 0 4 33 22 73 40 39 18 108 50 152 71 44 21 94 41 112 45 18 3 47 16 65
28 18 12 44 27 58 33 81 36 103 44 122 44 22 0 191 54 220 70 10 6 22 10 28
10 6 0 29 9 53 19 44 20 48 21 187 50 47 9 92 21 99 25 7 5 48 17 90 26 42 10
81 19 86 20 27 7 30 -6 30 -127 0 -92 3 -127 13 -131 6 -2 12 -13 12 -25 0
-12 13 -37 28 -54 15 -18 44 -52 64 -77 21 -24 66 -60 100 -79 35 -19 84 -46
110 -61 26 -14 53 -26 61 -26 8 0 29 -7 47 -16 18 -9 49 -18 69 -20 20 -1 52
-7 71 -13 19 -7 51 -14 70 -17 19 -3 39 -9 44 -12 5 -3 37 -7 70 -9 34 -2 68
-7 76 -10 55 -23 576 -38 685 -20 22 4 78 9 124 12 46 3 91 10 101 15 9 5 25
9 36 9 32 -1 97 12 137 27 20 8 52 14 70 14 18 0 42 7 53 15 10 8 26 15 35 15
9 0 42 11 73 25 31 14 66 25 78 25 21 0 90 37 96 52 2 4 10 8 18 8 8 0 14 4
14 9 0 5 10 11 23 15 12 3 39 20 59 38 20 18 44 38 55 44 10 6 20 19 21 29 2
10 15 27 28 39 38 34 75 148 76 237 0 42 -5 85 -11 97 -6 11 -11 25 -11 30 0
6 271 9 688 9 936 1 1400 5 1437 14 16 4 44 5 60 2 17 -4 35 -6 40 -6z m-8173
-3928 c9 -5 47 -9 85 -9 37 0 97 -7 133 -16 35 -8 87 -17 115 -19 134 -11 170
-16 207 -26 23 -6 71 -12 107 -15 80 -4 151 -14 171 -22 17 -6 92 -14 130 -13
145 3 180 3 210 -4 43 -10 41 -10 170 -29 58 -9 118 -21 134 -26 16 -6 40 -10
52 -10 13 0 24 -6 24 -12 0 -18 -39 -206 -51 -245 -6 -17 -9 -49 -8 -70 2 -22
0 -44 -4 -49 -8 -14 -35 -146 -42 -209 -3 -27 -7 -63 -10 -80 -3 -16 -7 -47
-10 -67 -2 -21 -8 -45 -13 -55 -5 -10 -14 -49 -20 -88 -25 -162 -37 -251 -36
-272 1 -13 -2 -23 -6 -23 -7 0 -12 -27 -26 -128 -1 -15 -5 -40 -8 -57 -3 -16
-6 -47 -8 -68 -1 -21 -5 -40 -9 -43 -4 -2 -12 -34 -18 -71 -7 -38 -14 -79 -17
-93 -3 -14 -11 -63 -19 -110 -7 -47 -19 -112 -24 -145 -6 -33 -13 -71 -15 -85
-2 -14 -7 -32 -10 -40 -3 -8 -8 -36 -11 -62 -12 -112 -17 -142 -26 -165 -5
-14 -6 -35 -3 -48 3 -12 1 -26 -5 -29 -6 -4 -11 -22 -11 -40 0 -18 -5 -46 -10
-62 -6 -16 -15 -60 -20 -99 -19 -127 -28 -180 -33 -195 -3 -8 -8 -38 -11 -67
-2 -29 -7 -56 -9 -60 -3 -4 -8 -35 -12 -68 -3 -32 -10 -66 -15 -75 -4 -8 -10
-45 -14 -83 -3 -37 -8 -72 -11 -77 -3 -5 -10 -43 -15 -86 -5 -42 -13 -82 -18
-88 -4 -6 -9 -33 -10 -61 -1 -27 -9 -77 -17 -110 -8 -33 -21 -105 -29 -160
-13 -94 -21 -141 -31 -175 -2 -8 -7 -44 -11 -80 -4 -36 -11 -75 -15 -88 -5
-13 -9 -40 -9 -61 0 -20 -6 -60 -14 -87 -8 -27 -17 -78 -21 -114 -3 -36 -13
-85 -20 -110 -8 -25 -14 -54 -14 -65 0 -32 -18 -157 -29 -200 -11 -43 -31
-168 -37 -238 -3 -23 -8 -64 -12 -92 -3 -27 -6 -54 -5 -58 1 -4 -2 -17 -8 -27
-6 -11 -13 -47 -15 -80 -2 -33 -9 -68 -14 -79 -6 -10 -12 -39 -14 -63 -1 -23
-6 -48 -9 -54 -4 -6 -8 -42 -9 -80 -2 -38 -7 -72 -12 -75 -9 -6 -34 -147 -41
-229 -2 -19 -13 -80 -24 -135 -12 -55 -24 -120 -27 -145 -3 -25 -7 -61 -10
-80 -3 -19 -7 -57 -10 -83 -2 -26 -10 -57 -16 -69 -6 -11 -9 -34 -6 -51 2 -17
-2 -51 -9 -75 -8 -25 -14 -66 -14 -91 0 -85 -2 -86 -83 -84 -64 2 -297 4 -502
5 -38 0 -297 1 -575 1 -278 1 -508 5 -511 10 -3 5 -1 25 6 45 7 20 16 78 19
127 11 142 25 262 36 290 5 14 10 36 10 48 1 53 8 144 14 172 8 37 29 154 56
310 20 121 33 181 51 245 6 19 12 55 14 80 6 83 18 145 31 165 7 11 15 48 17
82 3 33 8 67 12 74 5 7 10 40 12 73 5 70 15 135 37 221 15 60 22 102 32 205 3
30 13 73 21 95 19 49 43 174 36 192 -3 7 -1 19 4 26 5 6 10 23 11 37 1 14 8
43 16 65 8 22 22 85 29 140 8 55 26 147 40 205 14 58 31 148 38 200 6 52 20
118 31 145 11 28 21 77 24 110 2 33 8 78 13 100 9 37 24 108 36 180 3 17 10
41 15 55 4 14 11 50 15 80 12 91 12 94 18 110 13 31 37 135 43 184 3 28 12 72
20 99 7 26 13 48 12 50 0 1 5 22 12 46 6 24 13 53 14 65 1 11 6 32 9 46 4 14
9 52 11 85 2 33 11 85 20 115 21 65 47 227 40 245 -3 7 2 30 11 51 20 49 34
111 41 183 3 31 10 76 15 101 11 47 28 169 33 230 2 19 6 49 10 65 3 17 8 53
11 80 3 28 13 106 24 175 11 69 20 154 21 190 0 36 5 83 11 105 20 75 30 140
38 230 5 50 18 144 30 210 15 84 20 138 15 181 -7 66 -11 78 -34 86 -8 3 12 4
45 1 33 -3 68 -10 77 -14z"/>
<path d="M7814 18060 c-32 -13 -48 -67 -29 -96 20 -31 49 -38 84 -19 81 41 29
150 -55 115z"/>
<path d="M8481 18034 c-33 -42 -25 -64 30 -77 27 -7 69 21 69 46 0 22 -24 46
-51 52 -21 5 -31 1 -48 -21z"/>
<path d="M3907 10218 c-18 -24 -39 -62 -46 -85 -6 -24 -15 -43 -20 -43 -4 0
-20 -25 -35 -55 -16 -30 -35 -60 -44 -67 -8 -7 -21 -26 -29 -43 -7 -16 -29
-55 -48 -85 -19 -30 -34 -61 -35 -69 0 -7 -20 -54 -45 -103 -25 -50 -45 -96
-45 -103 0 -7 -4 -15 -9 -17 -14 -5 -101 -187 -101 -211 1 -55 50 -74 183 -71
48 2 87 0 86 -4 0 -7 -31 -67 -90 -178 -60 -112 -93 -169 -101 -175 -11 -7
-67 -174 -64 -192 7 -48 63 -64 168 -49 40 6 75 9 77 6 3 -3 0 -14 -7 -24 -7
-11 -12 -25 -12 -32 0 -7 -21 -53 -45 -102 -25 -50 -45 -98 -45 -107 0 -10 -4
-20 -9 -23 -5 -3 -21 -41 -36 -83 -15 -43 -30 -85 -35 -94 -4 -8 -18 -55 -30
-103 -30 -120 -17 -166 46 -166 50 0 162 87 164 127 0 6 11 20 23 30 13 10 29
28 35 40 7 12 36 46 65 75 29 29 77 83 106 121 29 37 60 73 70 80 9 6 43 48
76 92 32 44 64 83 71 87 46 29 154 153 154 177 0 5 6 14 14 20 36 30 21 118
-23 137 -28 11 -95 26 -123 26 -16 1 -28 2 -28 4 0 10 28 65 51 99 14 22 48
74 75 115 26 41 54 80 61 85 20 16 123 177 124 194 0 9 3 28 5 42 8 46 -23 62
-115 58 -80 -4 -83 -2 -55 32 8 8 26 38 42 67 15 28 51 75 78 104 48 51 114
148 114 168 0 6 7 10 15 10 8 0 19 9 25 21 7 11 21 30 32 41 37 37 58 99 48
143 -10 46 -29 62 -79 71 -20 3 -51 10 -68 16 -18 5 -68 9 -110 8 -43 -1 -130
5 -193 14 -63 8 -145 15 -182 16 -67 0 -67 0 -101 -42z"/>
</g>
</svg>
