<svg xmlns="http://www.w3.org/2000/svg" xmlns:xlink="http://www.w3.org/1999/xlink" width="28pt" height="28pt" viewBox="0 0 28 28" version="1.1" class="">
   <path style="fill:none;stroke-width:10;stroke-linecap:round;stroke-linejoin:round;stroke:rgb(0%,0%,0%);stroke-opacity:1;stroke-miterlimit:4;" d="M 48 200 C 48 200 88 192 96 168 C 96 168 32 144 48 56 C 48 56 80 96 128 104 L 128 88 C 128 69.071429 141.285714 52.714286 159.821429 48.857143 C 178.392857 44.964286 197.107143 54.642857 204.678571 72 L 240 72 L 208 104 C 208 160 168 216 96 216 C 64 216 48 200 48 200 Z M 48 200 " transform="matrix(0.109375,0,0,0.109375,0,0)">    </path>
</svg>
